<?xml version="1.0" encoding="UTF-8" standalone="no"?>
<!-- Created with Inkscape (http://www.inkscape.org/) -->

<svg
   xmlns:dc="http://purl.org/dc/elements/1.1/"
   xmlns:cc="http://creativecommons.org/ns#"
   xmlns:rdf="http://www.w3.org/1999/02/22-rdf-syntax-ns#"
   xmlns:svg="http://www.w3.org/2000/svg"
   xmlns="http://www.w3.org/2000/svg"
   xmlns:sodipodi="http://sodipodi.sourceforge.net/DTD/sodipodi-0.dtd"
   xmlns:inkscape="http://www.inkscape.org/namespaces/inkscape"
   width="162.53876mm"
   height="169.48293mm"
   viewBox="0 0 575.92473 600.53005"
   id="svg16062"
   version="1.1"
   inkscape:version="0.91 r13725"
   sodipodi:docname="shockedman.svg">
  <defs
     id="defs16064" />
  <sodipodi:namedview
     id="base"
     pagecolor="#ffffff"
     bordercolor="#666666"
     borderopacity="1.0"
     inkscape:pageopacity="0.0"
     inkscape:pageshadow="2"
     inkscape:zoom="0.43185537"
     inkscape:cx="1265.1485"
     inkscape:cy="181.57468"
     inkscape:document-units="px"
     inkscape:current-layer="layer1"
     showgrid="false"
     fit-margin-top="0"
     fit-margin-left="0"
     fit-margin-right="0"
     fit-margin-bottom="0"
     inkscape:window-width="1366"
     inkscape:window-height="705"
     inkscape:window-x="-8"
     inkscape:window-y="-8"
     inkscape:window-maximized="1" />
  <metadata
     id="metadata16067">
    <rdf:RDF>
      <cc:Work
         rdf:about="">
        <dc:format>image/svg+xml</dc:format>
        <dc:type
           rdf:resource="http://purl.org/dc/dcmitype/StillImage" />
        <dc:title></dc:title>
      </cc:Work>
    </rdf:RDF>
  </metadata>
  <g
     inkscape:label="Layer 1"
     inkscape:groupmode="layer"
     id="layer1"
     transform="translate(686.55951,-457.60901)">
    <rect
       style="opacity:1;fill:#000000;fill-opacity:1;fill-rule:evenodd;stroke:none;stroke-width:4.5;stroke-linecap:round;stroke-miterlimit:4;stroke-dasharray:none;stroke-opacity:1"
       id="rect16722"
       width="575.85071"
       height="600.53003"
       x="-686.55951"
       y="457.60901" />
    <path
       style="fill:#ffff00"
       d="m -371.82031,522.95703 c -0.19975,-0.0748 -0.57715,0.36321 -1.22461,1.17188 -0.8517,1.06384 -1.88465,3.62527 -2.29688,5.6914 -0.41227,2.06621 -1.31917,4.4266 -2.01367,5.24414 -1.58941,1.87101 -5.05384,0.59971 -5.52344,-2.02539 -0.45892,-2.56547 -1.47865,-3.0968 -2.85547,-1.48828 -0.60532,0.70727 -2.73202,0.96854 -4.7246,0.58008 -3.27313,-0.63827 -3.87347,-0.35995 -6.23438,2.88867 -1.79674,2.47238 -3.02063,3.3661 -3.91797,2.85742 -1.8282,-1.03634 -2.90505,-0.40365 -8.67969,5.10157 -2.79428,2.66382 -5.76932,4.8574 -6.60937,4.875 -0.84018,0.0177 -3.48907,0.72952 -5.88867,1.58203 l -4.36328,1.55078 2.72851,1.74023 c 2.29908,1.46676 3.16111,1.42235 5.47656,-0.27734 3.6301,-2.66467 5.21336,-2.17279 4.60938,1.43164 -0.40072,2.39094 0.36458,1.45653 4.10742,-5.01563 2.53029,-4.37636 5.09342,-7.9773 5.69531,-8 0.60194,-0.0228 1.21243,1.18288 1.35547,2.67969 0.25168,2.63249 0.33678,2.5856 2.64063,-1.47851 1.93454,-3.41262 2.5784,-3.96461 3.42383,-2.9375 0.74869,0.90962 1.59927,0.61815 3.02929,-1.03516 1.50455,-1.73957 2.46759,-2.02428 3.96094,-1.17773 1.08516,0.61523 2.5307,0.65924 3.21289,0.0977 1.93214,-1.59027 4.03839,0.25141 4.60547,4.0293 l 0.51562,3.4375 2.29297,-3.03125 c 2.66991,-3.52969 4.15445,-3.35125 4.09375,0.49219 -0.0307,1.94686 -1.40649,4.78886 -4.83789,9.99218 -4.97794,7.54845 -6.78622,9.25461 -24.97461,23.55664 -8.67311,6.81983 -14.17206,12.65863 -12.70508,13.49024 0.28002,0.15876 1.80631,-0.82123 3.39063,-2.17774 4.12599,-3.53295 11.16676,-5.69139 16.75781,-5.13476 4.49199,0.44719 4.75858,0.33517 3.86914,-1.63672 -1.15238,-2.55499 -1.79509,-2.96481 -4.76758,-3.03711 -1.25959,-0.0306 -2.38114,-0.39004 -2.49414,-0.79883 -0.113,-0.4088 2.60771,-2.91569 6.04688,-5.57226 13.62441,-10.52368 19.59081,-15.9014 21.99609,-19.81836 1.81482,-2.95527 3.07848,-4.08228 4.53711,-4.04688 1.51101,0.0367 2.02918,0.56237 2.04688,2.08203 0.0193,1.65992 0.35289,1.46363 1.82226,-1.07812 1.11271,-1.92434 1.50866,-3.99288 1.03711,-5.41797 -0.70708,-2.13703 -0.93661,-2.24359 -3.11719,-1.45508 -4.85108,1.75421 -6.61227,-2.64978 -5.91992,-14.79492 0.11944,-2.09501 0.15329,-3.04062 -0.10351,-3.13672 z m 20.9707,18.4082 c -3.93632,-0.0957 -7.61831,1.2497 -8.7168,3.1875 -0.79624,1.40461 -0.56757,1.89427 1.04102,2.23438 1.5793,0.33397 2.05854,1.26027 2.05859,3.9707 l 0,3.53516 2.82618,-2.71485 c 1.55419,-1.49382 3.40238,-4.19859 4.10742,-6.01171 1.00896,-2.59502 1.39179,-3.56163 0.81836,-3.9375 -0.34406,-0.22558 -1.03284,-0.23688 -2.13477,-0.26368 z m 5.77539,1.64844 c -0.16547,0.0274 -0.35924,0.14044 -0.58594,0.32617 -1.99851,1.63762 -2.23011,10.7009 -0.25976,10.15625 2.24683,-0.62102 2.85602,0.0372 2.33203,2.51563 -0.49122,2.32309 1.0886,8.48555 2.36133,9.20703 0.4086,0.23165 1.28964,-0.54146 1.95703,-1.71875 0.66738,-1.1773 0.88474,-2.99381 0.48242,-4.03711 -0.40224,-1.04324 -1.10521,-3.03471 -1.56055,-4.42187 -0.45539,-1.38708 -1.46146,-2.73241 -2.23828,-2.99219 -0.78779,-0.26335 -1.47779,-2.54178 -1.55859,-5.15235 -0.0709,-2.29336 -0.22356,-3.45259 -0.5918,-3.78515 -0.0552,-0.0499 -0.11624,-0.082 -0.18164,-0.0957 -0.049,-0.01 -0.10105,-0.0109 -0.15625,-0.002 z m -86.90234,4.13867 c -0.94291,0.0263 -1.75391,0.47997 -2.20703,1.2793 -0.83032,1.46468 -0.67574,1.68937 0.96093,1.39648 3.53334,-0.63197 2.38757,0.90325 -2.54687,3.41016 -4.28144,2.1752 -11.34131,7.91924 -12.73828,10.36328 -0.27124,0.47847 3.06483,-1.24888 7.41992,-3.83789 4.35506,-2.58899 8.82921,-5.01016 9.93945,-5.3789 3.64267,-1.20978 4.17202,-4.9119 1.49414,-6.55079 -0.38256,-0.23412 -0.82994,-0.42585 -1.34375,-0.5625 -0.33522,-0.0891 -0.66421,-0.12814 -0.97851,-0.11914 z m 137.15039,5.59375 c -0.52663,0.055 -1.26948,0.43026 -2.17188,1.17774 -1.07111,0.88716 -2.69869,1.50151 -3.61718,1.36328 -0.91845,-0.13809 -2.10178,0.50762 -2.62891,1.4375 -0.73065,1.28891 -1.84535,1.36895 -4.69531,0.33398 -2.05617,-0.74672 -4.26958,-0.92036 -4.91797,-0.38671 -0.64826,0.53359 -1.68753,0.69685 -2.3086,0.36328 -2.397,-1.28753 -9.68765,1.34252 -12.63867,4.55859 -3.8371,4.18191 -5.44603,6.99702 -4.35547,7.61523 0.47847,0.27124 1.14859,0.005 1.49024,-0.59179 1.38785,-2.42391 6.19396,-6.54678 7.05859,-6.05664 0.5846,0.3314 0.049,1.6151 -1.45508,3.48437 l -2.38281,2.96094 3.42188,-2.08398 c 4.4981,-2.73848 6.78591,-4.32834 8.4375,-5.86719 0.74469,-0.69379 2.46107,-1.14322 3.8164,-0.9961 3.66554,0.3978 7.01431,0.14977 8.49219,-0.63086 0.72164,-0.3812 1.7104,-0.46655 2.19922,-0.18945 1.72674,0.97888 4.80275,-0.605 6.29883,-3.24414 1.01047,-1.78253 1.05557,-2.93522 0.41015,-3.19726 -0.12549,-0.051 -0.27758,-0.0691 -0.45312,-0.0508 z m -152.65625,3.28516 c -1.19663,-0.004 -4.29471,1.43928 -5.79102,2.85937 -2.71767,2.57939 -0.49095,2.71269 3.1211,0.1875 1.8097,-1.26517 3.22578,-2.53374 3.14648,-2.82031 -0.015,-0.054 -0.0455,-0.0985 -0.0898,-0.13281 -0.0832,-0.0639 -0.21577,-0.0932 -0.38672,-0.0937 z m 32.08789,0.94531 c -0.14886,-0.0212 -0.39232,0.0552 -0.73828,0.24024 -0.84891,0.45423 -2.67878,2.26239 -4.06641,4.01758 -3.62709,4.58774 -10.45112,10.52812 -15.61133,13.58984 -5.45085,3.23416 -6.84009,5.31823 -4.44531,6.67578 1.23078,0.69773 2.32226,0.3509 3.61914,-1.14844 2.94804,-3.40835 6.72701,-4.53838 10.2832,-3.07226 6.26402,2.58248 8.62517,2.9872 10.9629,1.875 2.90586,-1.38259 4.50964,-3.99279 2.98437,-4.85742 -1.57731,-0.89414 -6.97032,-1.25515 -7.41211,-0.4961 -0.34744,0.59263 -6.4649,0.67727 -7.48047,0.10156 -0.87064,-0.49355 1.87986,-4.47736 6.08399,-8.80859 3.8999,-4.01779 6.44162,-7.57702 5.9375,-8.06445 -0.0291,-0.0281 -0.0676,-0.0457 -0.11719,-0.0527 z m -54.61328,11.24219 c -0.41489,0.0275 -0.89213,0.37188 -1.19727,0.91016 -0.40688,0.71772 -0.58448,1.39147 -0.39648,1.49804 0.18808,0.10662 0.89983,-0.26453 1.58203,-0.82617 0.68228,-0.56157 0.85999,-1.23725 0.39648,-1.5 -0.11585,-0.0657 -0.24647,-0.091 -0.38476,-0.082 z m 181.91015,1.08594 c -1.23682,-0.0131 -2.46026,1.67189 -5.2539,5.82031 -2.46766,3.66423 -5.34633,7.20528 -6.39649,7.86914 -2.68855,1.69946 -0.8436,2.3883 2.20117,0.82227 1.38009,-0.70985 4.47899,-3.22017 6.88477,-5.58008 2.40592,-2.35995 4.97615,-4.53262 5.71289,-4.82813 0.89364,-0.3583 0.78194,-1.08722 -0.33594,-2.1875 -0.78149,-0.76924 -1.38888,-1.3346 -1.93359,-1.64453 -0.3063,-0.17448 -0.59349,-0.26848 -0.87891,-0.27148 z m -173.23437,6.2539 c -0.24963,-0.0302 -0.74587,0.32408 -1.625,1.04688 -1.1103,0.91288 -2.37845,2.78177 -2.81641,4.15234 -0.43806,1.37055 -1.46373,2.84284 -2.27929,3.27149 -0.8156,0.42863 -1.57525,1.40105 -1.68946,2.16015 -0.16469,1.09454 0.38627,1.34201 2.66407,1.19532 1.57969,-0.10178 3.15178,-0.61328 3.49414,-1.13672 2.89638,-4.427 4.86894,-7.0069 6.46289,-8.45508 1.0057,-0.91384 1.33947,-1.40818 1.0332,-1.58203 -0.1021,-0.0579 -0.27634,-0.0774 -0.51953,-0.0684 -0.74786,0.0284 -1.78997,0.80961 -2.31641,1.73828 -1.19209,2.10291 -2.5957,1.44453 -2.26367,-1.0625 0.10795,-0.81489 0.1051,-1.22957 -0.14453,-1.25977 z m 79.34375,3.61329 c -0.61388,-0.0247 -1.56078,0.14567 -2.76172,0.54296 -2.61458,0.86513 -2.63803,0.92758 -1.44336,3.75391 1.52185,3.60047 1.54656,3.61571 5.14844,2.75586 1.63949,-0.39127 3.07185,-1.25981 3.18164,-1.93164 0.21263,-1.30116 -0.30277,-1.60543 -3.53711,-2.07813 -1.6258,-0.23733 -1.76204,-0.53053 -0.66016,-1.4375 0.95402,-0.78525 1.08308,-1.31594 0.57227,-1.51757 -0.1277,-0.0504 -0.29538,-0.0799 -0.5,-0.0879 z m -7.04102,0.42187 c -0.40586,-0.0549 -0.81611,0.12163 -1.01953,0.48047 -0.27124,0.47847 -0.32033,0.9683 -0.10937,1.08789 0.21096,0.11959 0.84713,-0.0368 1.41406,-0.34766 0.56692,-0.31082 0.61807,-0.79867 0.11133,-1.08593 -0.12667,-0.0718 -0.2612,-0.11647 -0.39649,-0.13477 z m -63.61328,0.91992 c -2.16041,0.0671 -6.29571,3.02321 -6.55664,5.00781 -0.19893,1.51343 0.0416,1.54984 1.63086,0.2461 1.02531,-0.84124 2.46417,-1.18902 3.19727,-0.77344 0.84185,0.47722 1.78582,-0.0464 2.56445,-1.41992 0.7576,-1.33641 0.74122,-2.45562 -0.0469,-2.90234 -0.21098,-0.11961 -0.48043,-0.16821 -0.78906,-0.15821 z m 110.30664,2.66016 c -1.79829,-0.33396 -17.00018,5.63972 -17.76367,6.98047 -0.41624,0.73426 1.05472,0.56296 3.36523,-0.39063 2.25863,-0.93242 6.3739,-2.27024 9.14454,-2.97265 4.09085,-1.03708 6.82559,-2.69817 5.88672,-3.38672 -0.13419,-0.0983 -0.34194,-0.17647 -0.63282,-0.23047 z m -28.52734,0.125 c -0.50505,0.0305 -1.11966,0.16123 -1.6836,0.375 -1.52278,0.5773 -1.51727,0.86377 0.0254,1.73828 1.06125,0.60159 2.15877,0.49031 2.58398,-0.25977 0.40687,-0.71771 0.39635,-1.49833 -0.0234,-1.73632 -0.10498,-0.0595 -0.25559,-0.0966 -0.43945,-0.11329 -0.1379,-0.013 -0.29454,-0.014 -0.46289,-0.004 z m 40.69922,2.10547 c -0.20445,0.007 -0.44611,0.13814 -0.73828,0.38672 -0.58237,0.49544 -1.7047,0.99318 -2.49414,1.10546 -0.78954,0.11224 -3.78815,0.70426 -6.66407,1.31641 l -5.22851,1.11328 3.1289,1.06836 c 2.13002,0.72778 2.94068,1.4058 2.53516,2.12109 -1.26769,2.23632 2.18009,1.43703 6.36328,-1.47656 3.34871,-2.33231 4.27108,-3.41972 3.90234,-4.60156 -0.17752,-0.56919 -0.36772,-0.89789 -0.61132,-1 -0.0609,-0.0252 -0.12516,-0.0352 -0.19336,-0.0332 z m -33.5,6.31445 c -0.45783,0.003 -1.08791,0.26046 -1.59961,0.68164 -0.68228,0.56159 -0.9025,1.21161 -0.49024,1.44531 0.41227,0.23371 1.30805,-0.0341 1.99024,-0.5957 0.68228,-0.56157 0.9025,-1.21357 0.49023,-1.44727 -0.10306,-0.0584 -0.23801,-0.085 -0.39062,-0.084 z m 38.6875,0.42383 c -1.79432,-0.0757 -4.21609,0.92318 -7.39844,3.03711 -4.0232,2.67253 -4.83148,4.2086 -1.91211,3.63476 1.24516,-0.24478 4.15951,-0.82676 6.47852,-1.29297 4.67383,-0.93959 6.96759,-3.50415 4.42187,-4.94726 -0.46339,-0.26269 -0.99174,-0.40644 -1.58984,-0.43164 z m 13.73242,1.11523 c -0.52335,0.0132 -1.47982,0.62917 -3.32031,1.84375 -4.29642,2.83552 -4.96545,3.58022 -3.1543,3.51172 0.68806,-0.0261 2.44428,0.96196 3.90234,2.19336 l 2.65235,2.23633 -2.81641,3.81836 c -6.09141,8.26427 -13.92231,15.49182 -19.02539,18.01367 0.56084,0.38238 1.00375,0.88647 1.48438,1.36133 0.079,0.10057 0.1595,0.20098 0.24023,0.30078 0.71764,-0.62561 1.53108,-1.26469 2.40234,-1.86133 2.59395,-1.77631 6.01099,-4.28556 7.59375,-5.57422 1.5828,-1.28875 5.25171,-3.5266 8.1543,-4.97461 2.90258,-1.448 5.67795,-3.33823 6.16602,-4.19922 0.88442,-1.56015 -1.16417,-11.00444 -2.5586,-11.79492 -0.40348,-0.22873 -0.84357,-1.57066 -0.97851,-2.98242 -0.10519,-1.10053 -0.17912,-1.71955 -0.54297,-1.86133 -0.0585,-0.0232 -0.12442,-0.0332 -0.19922,-0.0312 z m 8.10742,33.84375 c -0.50806,-0.0256 -1.29371,0.66161 -1.87305,1.6836 -0.66206,1.1679 -1.65503,2.14121 -2.20703,2.16211 -0.55195,0.0208 -2.54595,2.19848 -4.42968,4.83789 -1.88358,2.63937 -4.04633,5.30939 -4.80469,5.93359 -0.75826,0.62424 -1.02335,1.3363 -0.58985,1.58203 0.43358,0.24578 1.95476,-0.57204 3.38086,-1.81836 2.59353,-2.26689 9.72181,-10.53112 10.94532,-12.68945 0.35699,-0.62975 0.25581,-1.36549 -0.22266,-1.63672 -0.0598,-0.0339 -0.12662,-0.0507 -0.19922,-0.0547 z"
       id="path16762"
       inkscape:connector-curvature="0" />
    <path
       style="fill:#e9afaf"
       d="m -421.27734,594.64844 c -1.1719,0.23123 -5.28809,5.23385 -7.63672,9.37695 -1.01086,1.78321 -2.54472,2.48039 -6.19141,2.81055 -2.66575,0.2414 -5.05205,0.80236 -5.30469,1.24804 -0.25264,0.44567 -1.07828,0.14287 -1.83398,-0.67187 -0.90442,-0.97537 -1.97664,-1.12118 -3.14453,-0.42383 -2.35787,1.40608 -3.88319,-1.2173 -3.76367,-6.47851 l 0.0879,-3.88672 -3.11328,6.56836 c -2.81592,5.9434 -3.26488,6.48464 -4.70899,5.66601 -0.87785,-0.49764 -2.15366,-0.44633 -2.83594,0.11524 -0.68228,0.56159 -1.83951,0.681 -2.57226,0.26562 -0.76643,-0.43445 -1.76555,0.007 -2.35156,1.04102 -0.56032,0.98843 -1.7285,2.26581 -2.59766,2.83789 -0.86912,0.57221 -2.44736,1.97193 -3.50781,3.10937 -1.6189,1.73648 -1.6467,2.22842 -0.17188,3.06446 0.96598,0.54759 2.98106,0.65666 4.48047,0.24218 1.4994,-0.41446 2.94334,-1.13641 3.20703,-1.60156 0.26363,-0.46508 3.07029,-0.16764 6.23633,0.66016 8.40868,2.19836 15.42474,3.58057 20.62305,4.0625 2.51985,0.23354 4.95136,0.63497 5.40234,0.89062 0.45105,0.25577 3.53113,0.22789 6.8457,-0.0605 4.39838,-0.38299 6.13955,-0.11664 6.44336,0.98242 0.50769,1.83664 3.58847,1.30187 9.83203,-1.70703 2.60321,-1.25448 4.98561,-1.67357 6.05664,-1.06641 0.97089,0.55035 5.43765,0.10756 9.92774,-0.98242 17.54904,-4.26009 29.11969,-6.37893 32.45703,-5.94336 3.44695,0.44987 3.47751,0.42413 2.59961,-2.05274 -0.48864,-1.37855 -0.52679,-3.14457 -0.084,-3.92578 0.44599,-0.78676 0.6186,-1.28404 0.30273,-1.50586 -0.52644,-0.36971 -2.40802,0.0269 -6.64258,1.13282 -5.10399,1.33303 -6.70959,1.28734 -9.37305,-0.27149 -4.30524,-2.51986 -10.28853,-2.82569 -15.0957,-0.77344 -2.16918,0.926 -4.42217,1.41207 -5.00781,1.08008 -0.58565,-0.33199 -3.72202,0.21815 -6.96875,1.22266 -3.24675,1.00453 -6.69201,1.37864 -7.65625,0.83203 -1.0696,-0.60633 -2.55587,-0.32797 -3.8125,0.71289 -2.22727,1.84486 -2.19472,1.84903 -9.07227,-1.69922 -6.19105,-3.19403 -6.86218,-5.70445 -2.88476,-10.78125 1.62494,-2.07423 2.48555,-3.80834 2.02344,-4.07031 -0.0506,-0.0285 -0.11526,-0.0349 -0.19336,-0.0195 z m 72.01367,20.15429 c -0.82224,-0.0374 -1.67502,0.05 -2.51172,0.28125 -2.55812,0.70713 -2.73114,2.38166 -0.38281,3.7129 0.94303,0.53458 1.35332,1.55002 0.92773,2.30078 -0.59321,1.04646 -1.32392,0.87077 -3.29687,-0.79493 -1.39409,-1.17697 -3.76299,-2.32785 -5.26563,-2.55859 -3.26326,-0.50116 -15.91289,1.8123 -30.31055,5.54492 -5.75317,1.49149 -11.98483,2.66322 -13.84765,2.60352 -1.86287,-0.0596 -6.29697,0.52765 -9.85352,1.30469 -4.82217,1.05345 -6.88537,1.01066 -8.11328,-0.16016 -1.00917,-0.96233 -2.38608,-1.28922 -3.55664,-0.8457 -4.52875,1.71682 -25.25685,-1.20206 -30.78516,-4.33594 -2.38939,-1.35449 -12.15266,-0.55581 -13.20117,1.08008 -0.28203,0.44081 0.22341,0.59829 1.12305,0.34961 0.89964,-0.24868 3.09867,0.37787 4.88867,1.39257 1.78991,1.01466 3.68982,1.60552 4.2207,1.31446 1.10998,-0.60856 1.07187,-0.62467 13.25586,5.85351 7.81033,4.15277 8.8361,4.91339 6.92774,5.13477 -1.29024,0.14991 -4.50938,-1.02524 -7.58985,-2.77149 -4.62889,-2.62401 -15.50929,-6.22953 -22.22851,-7.36523 -6.98724,-1.18096 -21.91484,6.04799 -28.43555,13.77148 -3.80381,4.50552 -4.89896,4.63307 -3.27344,0.37696 1.11181,-2.91111 0.54675,-2.26376 -2.46093,2.82031 -4.66453,7.88475 -5.26425,10.15722 -2.55078,9.67188 2.45251,-0.43872 2.63354,1.9847 0.4414,5.89453 -1.22438,2.18418 -1.21376,3.04844 0.041,3.75976 1.21713,0.68999 1.28335,1.84733 0.26367,4.58008 -1.81114,4.85346 -2.63634,15.02242 -1.49219,18.40039 0.50392,1.48781 1.03589,4.88179 1.18164,7.54102 0.14589,2.65919 1.0639,7.18838 2.03906,10.06445 1.52016,4.48312 2.37662,5.57561 6.00196,7.66211 2.32593,1.33807 4.65362,3.41933 5.17187,4.62109 0.51832,1.20184 1.28644,2.1703 1.70899,2.1543 0.42255,-0.016 2.40564,-4.24199 4.40234,-9.39258 4.17687,-10.76492 7.66721,-15.06181 5.55664,-6.83984 -0.70833,2.75961 -2.21566,6.67152 -3.34961,8.69336 -1.50338,2.68042 -1.75589,4.16002 -0.93359,5.46093 0.94037,1.48762 0.38204,3.32945 -3.35352,11.08594 -5.8219,12.08862 -11.21341,31.82817 -12.75586,46.70117 -0.65898,6.35377 -1.37661,11.89625 -1.59375,12.31641 -0.84766,1.63928 0.69162,6.20329 2.96485,8.79688 1.31313,1.49819 2.68868,3.63794 3.05859,4.75585 0.36982,1.11786 2.87041,5.43951 5.55469,9.60157 2.68434,4.16197 5.39669,8.82918 6.0293,10.37304 0.63253,1.54383 1.69711,3.11736 2.36523,3.4961 0.6682,0.3788 1.10797,1.40353 0.97656,2.27734 -0.13143,0.87385 0.2807,1.88399 0.91602,2.24414 0.63541,0.3602 2.01365,3.99058 3.0625,8.06836 1.04877,4.07771 2.49155,7.50289 3.20703,7.61133 0.71551,0.10858 2.27627,1.46391 3.4668,3.01172 1.88489,2.45066 2.4555,2.74981 4.41992,2.3164 1.24076,-0.27372 2.90585,0.1327 3.69922,0.9043 1.00989,0.98212 1.87858,0.95665 2.89453,-0.0879 1.07793,-1.10835 1.75932,-1.09278 2.64844,0.0644 2.22123,2.89111 4.52427,3.83938 5.15429,2.1211 0.49135,-1.34027 1.05785,-1.23505 3.37891,0.6289 2.23681,1.79622 2.94671,1.95829 3.5918,0.82032 0.58897,-1.03897 1.61048,-0.95977 3.82031,0.29297 2.45309,1.39057 3.06839,1.38125 3.2832,-0.0469 0.22303,-1.48275 0.64397,-1.42804 2.69922,0.34961 2.89795,2.50663 5.37482,3.04634 6.32227,1.375 0.45631,-0.80496 1.70784,-0.63095 3.73046,0.51562 2.46481,1.39718 3.23282,1.39481 4.03125,-0.0137 0.83495,-1.47289 1.56767,-1.41161 4.76758,0.40235 2.67508,1.51644 4.52753,1.89456 6.33985,1.29492 1.40849,-0.46597 2.92875,-0.63883 3.37695,-0.38477 2.13023,1.20759 19.29064,-2.66234 25.57617,-5.76758 4.65598,-2.30026 10.00253,-8.48355 10.01953,-11.58789 0.0268,-4.85367 21.27936,-42.60411 25.19336,-44.75 0.43951,-0.241 1.11606,-5.61943 1.5,-11.95117 1.28746,-21.23447 1.88549,-29.20447 2.45899,-32.68554 0.31338,-1.90253 -0.17019,-5.53913 -1.07618,-8.08204 -0.90599,-2.54291 -1.59946,-5.88923 -1.53906,-7.43554 0.16719,-4.27687 -2.4412,-14.63165 -3.78711,-15.03321 -0.6546,-0.19532 -2.69408,-3.44372 -4.5332,-7.21875 -4.59497,-9.43167 -6.19384,-11.42496 -14.00391,-17.46484 -3.73603,-2.8893 -7.72562,-6.34615 -8.86523,-7.68164 -1.13956,-1.33558 -2.99237,-3.22023 -4.11914,-4.18945 -1.12677,-0.96922 -3.24465,-4.83446 -4.70703,-8.58789 -1.96261,-5.03749 -3.06063,-6.71384 -4.1875,-6.40235 -2.24175,0.61967 -3.6812,-0.50312 -5.29102,-4.12305 -0.88487,-1.98986 -2.8812,-4.109 -5.21875,-5.54296 -3.49455,-2.14387 -3.84133,-2.15597 -4.51953,-0.15235 -0.66677,1.96989 -1.07011,1.98011 -4.36328,0.11328 -2.43567,-1.38072 -5.08352,-1.93732 -8.06055,-1.69531 -7.31102,0.59449 -8.84231,-1.60451 -2.19531,-3.15234 6.01094,-1.39973 9.43766,-1.36434 12.06836,0.12695 2.42552,1.37497 2.42706,1.24844 0.0508,-4.5957 -1.46275,-3.59703 -2.05224,-6.70115 -1.46875,-7.73047 1.33215,-2.34998 3.61488,-0.87022 7.41016,4.80273 1.70338,2.54617 3.49265,4.85544 3.97851,5.13086 1.12118,0.63559 8.455,-4.38443 9.75391,-6.67578 0.53823,-0.94945 1.61607,-1.90065 2.39258,-2.11523 0.77646,-0.2147 3.69484,-2.3523 6.48632,-4.75 l 5.07618,-4.35938 8.14648,1.7461 c 4.48066,0.96092 9.01239,1.79315 10.07031,1.84765 1.16576,0.0601 2.56377,0.98196 3.54883,2.33985 1.11629,1.53906 2.38461,2.31436 4.04883,2.4746 1.808,0.17413 3.29027,1.29479 5.8418,4.41211 1.88089,2.29793 4.39532,4.98875 5.58593,5.98243 3.17171,2.64723 6.70403,16.72035 5.55274,22.11718 -0.51374,2.40803 -0.85306,5.00934 -0.75586,5.78125 0.30133,2.39269 -3.14724,8.06131 -5.07422,8.33985 -0.98551,0.14242 -3.04484,0.92085 -4.57617,1.73047 -3.90326,2.0637 -14.54917,1.92438 -18.3711,-0.24219 -3.04716,-1.72734 -8.41053,-2.77049 -8.97461,-1.74414 -0.15985,0.28203 0.46412,1.56386 1.37891,2.84375 1.42013,1.98701 2.15835,2.26752 5.05078,1.91601 1.86331,-0.22646 5.12084,0.28515 7.23828,1.13672 2.11743,0.85151 4.93045,1.19056 6.25,0.75391 2.45618,-0.81261 6.84182,0.87859 6.02344,2.32226 -0.88896,1.56817 -11.28401,2.90729 -12.94726,1.66797 -2.66838,-1.98807 -3.65602,-0.33711 -1.28516,2.14649 1.93866,2.03077 3.40732,3.2128 9.60547,7.73242 0.97057,0.70781 2.20696,2.71456 2.74804,4.45898 0.54123,1.74434 2.02505,4.23278 3.29688,5.5293 2.19233,2.23484 2.47123,2.23449 5.35938,-0.004 1.67545,-1.29861 4.38801,-4.76913 6.02929,-7.71289 6.33345,-11.35907 6.67114,-15.50941 2.73047,-33.58789 -1.19222,-5.46957 -1.92447,-13.06035 -1.64453,-17.04882 0.46088,-6.56562 0.75681,-7.43474 3.41797,-9.98438 1.60284,-1.53569 2.81914,-3.13963 2.70117,-3.56641 -0.11797,-0.42679 -0.47476,-0.31968 -0.79102,0.23829 -1.12256,1.98023 -5.58377,-1.68525 -5.78125,-4.75 -0.10347,-1.60659 -1.51543,-4.70872 -3.13671,-6.89258 -1.38773,-1.86928 -2.46589,-4.02103 -2.65821,-5.21289 -0.0376,-0.0539 -0.0797,-0.10417 -0.11718,-0.15821 -0.36156,-0.55143 -0.7999,-1.05349 -1.21485,-1.56445 -0.4958,-0.51323 -0.98776,-1.01251 -1.58203,-1.41602 -0.57947,-0.50556 -1.05899,-1.08352 -1.35156,-1.80468 l 0.0215,-0.0117 c -2.37505,-1.29862 -4.97031,-4.37055 -5.90625,-7.19922 -0.62278,-1.88237 -2.81064,-3.12214 -5.27734,-3.23438 z m 43.85742,67.9961 c -1.13582,-0.0509 -2.77383,1.82031 -5.51758,5.75586 -2.12019,3.04115 -4.30319,5.54756 -4.85156,5.56836 -0.54836,0.0208 -1.04547,1.6636 -1.10547,3.64843 l -0.10937,3.60938 2.76171,-2.69922 c 3.09128,-3.02369 4.46304,-3.55176 7.47071,-2.86719 1.56294,0.35573 2.08741,1.30036 2.13281,3.84375 0.0332,1.85431 -0.36084,4.11253 -0.875,5.01953 -0.51422,0.907 -0.73111,2.38552 -0.48242,3.28516 0.48037,1.73781 1.64604,2.77286 2.14062,1.90039 0.99947,-1.76311 1.43121,-19.27661 0.56836,-23.05469 -0.49239,-2.1561 -0.98493,-3.46137 -1.67383,-3.87109 -0.14352,-0.0854 -0.29672,-0.13167 -0.45898,-0.13867 z m -211.78125,3.77344 c -2.24974,0.16455 -8.24002,5.61092 -8.60352,8.02734 -0.2645,1.75869 6.49045,6.00898 7.29493,4.58984 0.27996,-0.49387 0.71859,-2.63521 0.97461,-4.75976 0.25603,-2.12456 0.90048,-4.62896 1.42968,-5.5625 0.56377,-0.99451 0.45684,-1.6883 -0.32226,-2.09766 -0.11129,-0.0585 -0.2362,-0.1114 -0.375,-0.1582 -0.11396,-0.0385 -0.24846,-0.0501 -0.39844,-0.0391 z m -8.77539,15.47461 c -0.9738,0.19011 -1.21089,3.49207 -0.85547,11.14257 0.2473,5.32283 1.41201,6.3007 3.375,2.83789 1.09426,-1.93031 1.01797,-3.31233 -0.30859,-5.62109 -0.96784,-1.68435 -1.47829,-4.07339 -1.13672,-5.30859 0.3417,-1.23524 0.0668,-2.56091 -0.61133,-2.94532 -0.16968,-0.0965 -0.32378,-0.13267 -0.46289,-0.10546 z m 215.48633,9.64062 c -0.78784,-0.12825 -1.89278,1.05125 -3.3086,3.54883 -1.47191,2.59652 -1.60539,4.00857 -0.5957,6.23633 0.77966,1.72045 0.8379,4.45507 0.14648,6.79101 -1.43473,4.84728 -6.44352,11.76192 -9.22851,12.74414 -2.13358,0.75249 -2.72556,3.05588 -2,7.77149 0.22386,1.45503 0.53388,1.42191 1.69336,-0.1875 0.78089,-1.0841 3.44848,-4.07745 5.92578,-6.65235 5.69477,-5.91891 8.24924,-11.63812 8.68945,-19.44922 0.35868,-6.36571 0.0205,-9.92997 -1.0039,-10.66796 -0.0996,-0.0718 -0.20581,-0.11647 -0.31836,-0.13477 z m -208.23438,6.11719 c -0.92685,0.13333 -1.72957,1.742 -4.20703,6.79101 -2.00237,4.08078 -3.95607,8.82128 -4.3418,10.53711 -1.4116,6.28025 7.1641,29.76713 11.09961,30.39844 1.66123,0.2665 5.34553,6.57119 5.03711,8.62109 -0.17056,1.13411 -0.91462,1.15424 -2.8164,0.0762 -3.6295,-2.05746 -4.11626,-0.32736 -2.00977,7.14453 1.85163,6.56794 4.47236,9.47849 6.80469,7.55859 3.51217,-2.89096 -0.2469,-21.98547 -6.99219,-35.51758 -5.97019,-11.977 -6.64835,-23.85035 -1.72656,-30.29883 2.58105,-3.38166 2.61992,-3.65187 0.66211,-4.76171 -0.6421,-0.364 -1.08847,-0.60943 -1.50977,-0.54883 z m 18.81836,14.98633 c -0.14633,-0.0132 -0.29992,10e-4 -0.45898,0.0449 -0.69807,0.1929 -0.69623,6.1687 0.002,6.56445 0.18425,0.10445 0.89732,-0.80244 1.58399,-2.01367 0.93632,-1.65178 0.42363,-3.93421 -0.71094,-4.48047 -0.13091,-0.063 -0.26969,-0.10203 -0.41602,-0.11523 z m 169.68946,3.73046 c -1.53123,0.1084 -5.82876,5.5228 -5.41016,7.03711 0.21177,0.76583 -0.0403,2.14285 -0.56055,3.06055 -0.52025,0.9177 -0.53009,3.67251 -0.0215,6.12109 0.50867,2.4485 0.6749,4.89228 0.36914,5.43165 -0.72828,1.28471 -0.58028,11.26817 0.16406,11.0625 0.31533,-0.0873 1.12388,-2.90509 1.79492,-6.25977 0.67118,-3.35472 1.73312,-9.42943 2.35938,-13.5 0.62625,-4.07056 1.409,-8.5408 1.74023,-9.93359 0.33124,-1.39279 0.25465,-2.72723 -0.16797,-2.9668 -0.0753,-0.0426 -0.16552,-0.0597 -0.26757,-0.0527 z m 18.42968,6.4629 c -0.89594,0.1118 -1.76267,2.14469 -1.17383,3.21874 0.63624,1.16054 -1.43863,5.13391 -4.95507,9.48633 -1.94034,2.40167 -2.84817,2.76416 -5.15821,2.05078 -3.67554,-1.1349 -4.4912,-0.57132 -4.68945,3.2461 -0.0905,1.7433 -0.36735,4.5806 -0.61523,6.30469 l -0.45313,3.13476 5.03906,-3.12109 c 2.76981,-1.71605 6.16954,-4.51421 7.55664,-6.21875 1.81067,-2.22505 2.94556,-5.14963 4.02539,-10.36524 0.82715,-3.99565 1.19088,-7.44037 0.80665,-7.6582 -0.125,-0.0711 -0.25483,-0.0941 -0.38282,-0.0781 z m -187.09375,60.57031 c -0.30538,0.002 -0.51058,0.29474 -0.49219,0.77929 0.0245,0.64609 0.43755,1.39673 0.91602,1.66797 0.47846,0.27123 0.84872,-0.0355 0.82422,-0.68164 -0.0245,-0.64607 -0.43559,-1.39674 -0.91406,-1.66797 -0.11962,-0.0678 -0.23219,-0.0983 -0.33399,-0.0976 z m 3.84375,16.58203 c -0.0815,-0.0137 -0.15706,-0.0116 -0.22656,0.008 -1.78756,0.49413 2.83798,14.27558 5.82031,17.33985 2.8908,2.97018 4.39649,3.91742 4.53125,2.85156 0.4706,-3.72183 -7.08552,-18.75146 -9.86328,-20.10938 -0.0926,-0.0452 -0.18022,-0.0759 -0.26172,-0.0898 z m 148.94336,17.0625 c -0.41418,-0.23478 -2.10926,1.51936 -3.76758,3.89844 -1.65844,2.37908 -4.32698,5.76063 -5.92968,7.51562 -2.38159,2.60773 -2.813,3.62289 -2.36719,5.55469 0.83398,3.61285 -1.12853,10.83677 -4.94922,18.2168 -1.89784,3.66585 -3.71938,7.18822 -4.04687,7.83007 -0.32725,0.64214 0.002,1.14294 0.73437,1.11524 1.28761,-0.0488 0.16654,1.73314 -7.78711,12.34961 l -2.11523,2.82422 2.91015,-2.08594 c 1.60086,-1.14723 3.22785,-1.90709 3.61524,-1.6875 0.38738,0.21962 -0.67702,2.84942 -2.36524,5.84375 -1.94345,3.44862 -3.11646,6.81279 -3.19726,9.17773 -0.10091,2.95506 -0.63926,4.20837 -2.58203,6.00782 -1.35028,1.25066 -4.87905,5.55674 -7.83985,9.56835 -2.96091,4.01159 -6.38075,8.60307 -7.60156,10.20508 -1.54489,2.0273 -1.93424,3.26282 -1.2793,4.0586 0.73926,0.89806 0.18463,2.13723 -2.58594,5.77734 -2.1551,2.83154 -3.54847,5.46126 -3.58007,6.75977 -0.0293,1.20737 -1.4217,3.96921 -3.22461,6.39062 -1.7458,2.34482 -3.58889,5.90574 -4.09375,7.91406 -0.86321,3.43311 -3.99794,8.20118 -11.26563,17.13282 -1.49627,1.83877 -2.48959,3.47459 -2.20703,3.63476 0.28256,0.16017 3.41281,-1.14112 6.95703,-2.89062 3.54418,-1.74963 6.64891,-3.54028 6.89844,-3.98047 0.24954,-0.4402 1.70899,-1.3224 3.24219,-1.96094 1.53317,-0.63868 6.58186,-3.60188 11.2207,-6.58398 4.63882,-2.98209 10.40332,-6.22004 12.80859,-7.19532 5.61236,-2.27584 13.18353,-8.39045 14.24805,-11.50586 0.72888,-2.13319 2.26777,-12.3506 2.79297,-18.54687 0.26858,-3.1691 1.95295,-10.88735 3.23828,-14.83008 1.37742,-4.22544 1.67342,-9.17679 0.7793,-13.08203 -0.52812,-2.30672 -0.31455,-3.09256 0.93359,-3.4375 2.62087,-0.72455 2.96765,-2.38623 1.69336,-8.11133 -1.09945,-4.93974 -1.02187,-5.42855 0.9043,-5.65234 2.90717,-0.33778 3.44566,-1.72615 1.86328,-4.80274 -1.62458,-3.15867 -1.07095,-6.77126 1.04883,-6.85156 1.21267,-0.0459 1.70064,-1.04082 2.48633,-5.05664 1.91902,-9.80964 2.34953,-12.29716 2.45117,-14.20898 0.0566,-1.06577 0.49616,-2.63349 0.97851,-3.48438 1.14013,-2.01124 1.96133,-15.26427 0.98047,-15.82031 z m -28.92578,29.82031 c -1.68121,0.1358 -5.87123,2.39016 -9.05664,4.97266 -2.60902,2.11516 -12.18379,13.52294 -14.52344,17.30469 -0.51615,0.83343 -0.3365,1.55019 0.41797,1.66406 1.75487,0.26475 -9.33963,20.88182 -14.47656,26.90234 -6.36711,7.46229 -6.09474,7.35119 -7.4375,2.98828 -0.6513,-2.11599 -0.84488,-4.44533 -0.42969,-5.17773 0.41531,-0.73249 0.6443,-2.50005 0.50781,-3.92774 -0.13648,-1.42768 0.2692,-3.51133 0.90039,-4.63086 0.63379,-1.11806 1.82033,-3.72153 2.64454,-5.7832 0.82697,-2.06837 3.28942,-5.56782 5.49414,-7.80664 2.41434,-2.45147 3.8638,-4.55582 3.66211,-5.31836 -0.18352,-0.69419 -0.56108,-1.16679 -0.83985,-1.05078 -13.79941,5.74164 -30.70479,12.11898 -36.01172,13.58594 l -6.94336,1.91797 2.10352,5.44336 c 1.73647,4.49552 1.81201,5.95224 0.4375,8.37695 -0.91519,1.61444 -1.449,3.32402 -1.1875,3.80078 0.37455,0.68328 -3.47623,9.06535 -4.02148,8.75391 -1.90004,-1.08855 -8.27615,-10.72326 -10.45313,-15.80274 -2.97283,-6.93662 -3.44956,-7.27432 -8.62109,-6.13281 -4.06925,0.89815 -4.68158,2.54013 -2.2168,5.93945 1.78866,2.46692 3.76752,6.69283 7.15234,15.27539 0.39019,0.98926 2.93128,6.54065 5.64844,12.33789 13.10555,27.96243 19.3094,44.80109 16.97656,46.08008 -1.87038,1.0255 -3.49196,-0.77751 -11.68554,-13 -6.22256,-9.2824 -7.86032,-12.43436 -6.98243,-13.4414 0.68929,-0.79071 0.52966,-2.45554 -0.40234,-4.17188 -0.85285,-1.57043 -1.35048,-4.52989 -1.10351,-6.57812 0.36601,-3.03788 -0.21721,-4.48897 -3.17383,-7.8711 -3.65687,-4.18336 -4.37708,-6.97371 -1.82422,-7.07031 0.84747,-0.0322 -0.58541,-3.32072 -3.6875,-8.45313 -5.52367,-9.13922 -6.17559,-11.00942 -3.24414,-9.34765 1.62561,0.92151 1.61742,0.48633 -0.0586,-2.90625 -1.0846,-2.19539 -2.28225,-4.16858 -2.66015,-4.38281 -0.3779,-0.21422 -3.66845,-0.13994 -7.31446,0.16406 -3.6461,0.30397 -7.59591,0.55645 -8.77734,0.56445 -3.73896,0.0243 -3.85583,1.35728 -0.4707,5.36524 1.80976,2.14276 5.02494,6.31108 7.14453,9.26367 2.11955,2.95267 5.17307,7.14492 6.78711,9.3164 1.6141,2.1714 4.28736,7.03912 5.93945,10.81641 1.65203,3.77738 3.86025,8.16553 4.9082,9.75195 1.04801,1.58634 3.68441,7.28727 5.85743,12.66797 2.17305,5.38063 4.32552,9.99446 4.7832,10.25391 0.45759,0.25939 2.19662,3.05616 3.86523,6.21484 1.66861,3.15868 3.22025,5.84872 3.44922,5.97852 0.22897,0.1298 1.68006,3.25928 3.22266,6.95312 3.19022,7.63949 4.03944,8.58319 4.83398,5.37309 0.30876,-1.2475 1.25811,-4.06767 2.11133,-6.26567 1.43118,-3.6868 1.91225,-4.08207 6.19531,-5.10937 4.05319,-0.97221 4.73543,-1.48768 5.37305,-4.05078 0.40179,-1.61477 1.11272,-3.14414 1.58008,-3.40039 0.46735,-0.25625 2.2588,-2.90611 3.98047,-5.88867 1.72175,-2.98251 5.15418,-7.59972 7.6289,-10.26172 3.05217,-3.28299 4.47468,-5.43483 4.42188,-6.68946 -0.0429,-1.01727 0.65032,-2.47098 1.54101,-3.23046 0.89081,-0.75951 1.53125,-1.95628 1.42188,-2.65821 -0.10893,-0.70168 1.73341,-3.02082 4.09375,-5.15234 2.3606,-2.13136 5.56975,-5.46558 7.13281,-7.41016 2.59473,-3.2281 2.65821,-3.50297 0.73047,-3.1582 -3.33321,0.59638 -2.90381,-0.83222 2.21094,-7.37695 3.36751,-4.30906 4.68872,-6.59236 4.48242,-7.74414 -0.16072,-0.89807 0.71264,-3.17973 1.93945,-5.07422 1.22669,-1.89444 2.04143,-4.12991 1.81055,-4.96485 -0.23571,-0.85298 0.51847,-2.68634 1.7207,-4.18359 1.29886,-1.61742 1.99915,-3.44497 1.78321,-4.65234 -0.19949,-1.11582 1.56334,-6.08984 4.01367,-11.32422 3.26036,-6.96484 4.4903,-10.84858 4.84765,-15.30274 0.26332,-3.28291 1.08463,-7.04698 1.82618,-8.36523 0.74589,-1.31579 1.00152,-2.59397 0.57812,-2.83399 -0.1275,-0.0722 -0.31647,-0.0956 -0.55664,-0.0762 z"
       id="path16801"
       inkscape:connector-curvature="0" />
    <path
       style="fill:#000000"
       d="m -474.61133,622.20898 c -3.47983,-0.0305 -12.00217,2.86829 -15.1875,5.83008 -1.51253,1.40629 -3.60222,3.26248 -4.64258,4.125 -4.56129,3.78173 -2.42197,3.33535 3.40235,-0.71094 3.50794,-2.43692 8.85147,-5.07421 11.875,-5.85937 3.02358,-0.78524 5.67447,-1.73979 5.89062,-2.12109 0.29612,-0.52237 0.20129,-0.86851 -0.18554,-1.06446 -0.2611,-0.13232 -0.65523,-0.19522 -1.15235,-0.19922 z m 111.07422,2.31446 c -2.95,-0.0412 -5.99041,0.095 -9.0625,0.42383 -6.51442,0.6973 -27.23693,9.37882 -29.03516,12.16406 -1.22584,1.89883 2.87821,0.87056 9.70508,-2.43164 11.02177,-5.33126 18.84103,-7.23403 28.16602,-6.85547 7.764,0.31523 17.94564,2.74132 22.89648,5.45703 1.21665,0.66751 3.53108,3.79617 5.14453,6.95117 1.61339,3.15509 3.60929,5.9653 4.43555,6.24414 2.23803,0.75521 -0.57987,-8.49321 -3.82422,-12.55078 -1.4039,-1.75582 -3.42415,-3.30328 -5.92187,-4.61133 -5.61984,-2.9431 -13.6539,-4.66729 -22.50391,-4.79101 z m -43.09766,8.61718 c -0.83389,0.002 -2.27788,0.2317 -3.875,0.64649 -2.43356,0.63197 -5.08808,0.77384 -5.89843,0.31445 -0.81044,-0.45942 -4.04429,-0.48174 -7.1875,-0.0508 -3.14323,0.43096 -6.07769,0.5786 -6.51953,0.32813 -0.44185,-0.25047 -1.13612,0.12995 -1.54297,0.84765 -1.20191,2.12023 1.20582,2.67706 6.84179,1.58008 2.90572,-0.56557 6.06993,-0.58119 7.03321,-0.0352 1.72353,0.97704 12.26823,-2.07314 11.89062,-3.43945 -0.0132,-0.0477 -0.0572,-0.0856 -0.1289,-0.11523 -0.1254,-0.0519 -0.33532,-0.0768 -0.61329,-0.0762 z"
       id="path16598"
       inkscape:connector-curvature="0" />
    <path
       style="fill:#000000"
       d="m -464.01367,634.50977 -5.4336,1.47656 c -2.9889,0.81146 -6.80597,1.94042 -8.48437,2.50781 -4.6061,1.55722 -13.33358,8.69137 -17.10156,13.98047 -2.87742,4.03911 -3.42445,5.63213 -3.88086,11.29883 -0.81577,10.12848 -0.32086,13.03646 2.48828,14.6289 1.90039,1.07729 3.01913,0.93829 5.02344,-0.625 1.4183,-1.10624 2.99043,-2.0278 3.49414,-2.04687 1.46817,-0.0556 3.13886,2.49034 2.4414,3.7207 -0.35127,0.61966 0.36391,2.26949 1.58789,3.66602 2.01501,2.29901 2.60947,2.44996 6.28125,1.59375 4.60083,-1.07282 13.66242,-1.68269 14.86328,-1.00196 0.43899,0.24885 3.42363,-0.51732 6.63282,-1.70117 6.55701,-2.41878 7.82351,-1.56506 3.35547,2.26367 -3.57709,3.06532 -16.92082,7.00229 -19.25391,5.67969 -0.90492,-0.51296 -2.83637,-0.60576 -4.29297,-0.20312 -1.71355,0.47366 -4.17638,-0.0101 -6.98047,-1.3711 -3.79232,-1.8408 -4.5195,-1.86307 -5.8125,-0.18359 -1.45242,1.88648 -1.38577,1.95756 3.92578,4.22656 3.94139,1.68368 6.17683,2.04333 8.25977,1.33008 1.57045,-0.53778 4.7999,-0.53374 7.17773,0.01 2.37774,0.54323 4.50852,0.6621 4.73438,0.26367 0.22586,-0.39844 4.0524,-2.13096 8.5039,-3.84961 4.45155,-1.71875 8.50021,-3.8425 8.99805,-4.72071 1.20965,-2.13387 3.35738,-3.84265 4.2168,-3.35546 0.38234,0.21674 -0.13237,2.4773 -1.14649,5.02343 -1.68145,4.22175 -2.40251,4.95178 -8.18359,8.29297 -3.48658,2.01506 -7.39137,5.1367 -8.67578,6.9375 -1.28433,1.80084 -4.581,5.78419 -7.32813,8.85352 -5.01342,5.60131 -9.63581,14.1956 -9.24023,17.18164 0.60937,4.59996 -1.75912,11.83786 -7.53906,23.04297 -6.10292,11.83104 -10.20173,23.07502 -10.39063,28.5 -0.054,1.54996 0.39877,4.77997 1.00391,7.17773 1.79855,7.12674 3.74246,6.35438 5.06836,-2.01172 1.47334,-9.29718 4.14069,-22.10751 5.5664,-26.73242 2.51886,-8.17065 8.4358,-20.68942 11.44336,-24.21289 1.56153,-1.82935 7.24364,-9.6222 12.62696,-17.31836 5.3833,-7.69615 10.28888,-14.14015 10.90039,-14.31836 0.6116,-0.17816 2.33489,0.90012 3.83008,2.39453 1.70364,1.70259 3.67133,2.86371 5.27148,3.10938 5.38796,0.8275 3.63058,-3.65256 -2.88086,-7.34375 -3.98121,-2.25685 -4.0256,-2.3478 -2.14844,-4.31641 3.2645,-3.42356 7.53829,-6.42242 8.43164,-5.91601 1.49795,0.84916 2.00286,4.45287 1.05469,7.52343 -0.50581,1.63788 -0.29338,4.18806 0.46875,5.66993 1.29547,2.51852 1.51157,2.63804 3.32031,1.82226 1.06422,-0.48 4.20342,-0.21306 6.97657,0.5918 9.00784,2.61458 9.08451,-1.04072 0.30273,-14.21485 -2.52451,-3.78711 -4.6672,-8.08549 -4.76172,-9.55273 -0.16974,-2.63639 0.42444,-3.4238 5.78125,-7.66797 1.10012,-0.87163 1.05635,-1.41227 -0.16992,-2.10742 -1.16164,-0.6585 -1.2978,-1.53456 -0.45703,-2.96094 0.8265,-1.40263 0.52395,-3.60719 -0.98242,-7.16601 l -2.17383,-5.14258 3.63867,-5.90625 c 3.26226,-5.29427 3.43301,-5.87188 1.62695,-5.54883 -1.74748,0.3127 -1.84393,0.0581 -0.72265,-1.91992 0.71127,-1.25472 0.9023,-2.50416 0.42383,-2.77539 -0.92127,-0.52224 -1.81815,0.45213 -3.0625,3.32226 -0.41788,0.96388 -2.20387,3.18427 -3.9668,4.93555 l -3.20508,3.18359 -5.37305,-2.92773 c -2.95643,-1.61041 -10.03358,-5.66376 -15.72461,-9.00781 L -464.01367,634.51 Z m 48.80859,24.71289 c -1.60871,0.0275 -2.82342,0.69642 -3.57422,1.98437 -0.34601,0.59414 -0.32873,1.23216 0.0391,1.41992 1.18638,0.60472 6.41708,-0.67427 7.00585,-1.71289 0.22848,-0.40306 0.0712,-0.76543 -0.43945,-1.05859 -0.30634,-0.17596 -0.74143,-0.32547 -1.29492,-0.44531 -0.62112,-0.13447 -1.20009,-0.19668 -1.73633,-0.1875 z m 12.4336,3.33984 c -0.29521,0.014 -0.63782,0.0766 -1.04688,0.16797 -3.43274,0.7671 -3.47098,1.60124 -0.22266,4.80664 1.6046,1.58345 2.93713,3.39093 2.96094,4.01953 0.0238,0.6285 0.41113,1.35417 0.86133,1.60938 1.6856,0.95554 1.80642,-1.51674 0.30078,-6.16211 -0.90405,-2.78914 -1.34848,-3.95203 -2.08789,-4.3125 -0.22181,-0.10816 -0.47042,-0.14295 -0.76562,-0.12891 z m -5.11914,5.76562 c -1.96578,-0.0868 -1.16936,1.91953 3.53906,9.52344 2.55011,4.1183 5.22659,9.02497 5.94726,10.90625 2.18036,5.69157 4.04871,5.3011 3.93946,-0.82226 -0.0623,-3.48588 -9.08461,-17.27699 -12.41211,-19.31836 -0.22184,-0.1361 -0.41709,-0.22103 -0.58399,-0.2461 -0.15525,-0.0233 -0.29869,-0.0372 -0.42968,-0.043 z m 23.34179,20.9961 c -0.56679,-0.075 -0.94285,0.32541 -1.3164,0.98437 -0.57008,1.00565 -0.24176,3.85275 0.75195,6.51953 1.75335,4.70521 1.74651,4.74565 -1.16992,7.00586 -5.04825,3.91238 -3.99052,7.73829 1.20312,4.35157 1.55602,-1.01459 3.31797,-1.56642 3.91406,-1.22852 0.59618,0.33796 3.7173,4.6133 6.9375,9.50391 3.22017,4.89046 7.11483,9.95279 8.6543,11.24804 4.57343,3.84806 7.68114,9.15328 9.61133,16.41016 0.9995,3.75806 2.42879,7.19131 3.17578,7.63086 0.74694,0.43963 1.7204,2.29963 2.16602,4.13281 0.44571,1.83323 1.30879,3.61672 1.91601,3.96094 0.60722,0.34423 1.13178,2.19331 1.16602,4.10937 0.0701,3.93143 0.25532,4.29498 1.26953,2.50586 0.64406,-1.13615 -0.75541,-10.48263 -4.09961,-27.38867 -0.6691,-3.38236 -1.9268,-6.55281 -2.79492,-7.04492 -0.86812,-0.49212 -2.00769,-2.95617 -2.53125,-5.47656 -0.70702,-3.40328 -1.59643,-4.88884 -3.45703,-5.77149 -1.37791,-0.65374 -4.64137,-4.26604 -7.25196,-8.02539 -11.14741,-16.05271 -15.41268,-21.96799 -17.50781,-23.18554 -0.23808,-0.13836 -0.44779,-0.21719 -0.63672,-0.24219 z m -20.3789,1.5293 c -0.45867,-0.0125 -0.93438,0.073 -1.46875,0.2207 -1.9994,0.55269 -2.858,1.66313 -5.02344,6.47851 -1.43703,3.19564 -2.59373,6.31385 -2.57031,6.9336 0.0785,2.07016 1.90587,2.22187 7.25781,0.59765 4.76457,-1.44601 5.67649,-1.37335 8.86133,0.71094 2.78855,1.82503 3.7953,2.04196 4.69921,1.00977 0.85598,-0.97728 0.0283,-2.85423 -3.23242,-7.33203 -3.7359,-5.13049 -5.59252,-7.4365 -7.15429,-8.25196 -0.46854,-0.24462 -0.91048,-0.35466 -1.36914,-0.36718 z m -7.81641,19.23242 c -0.56078,0.15501 -1.16121,2.53023 -1.33594,5.27929 -0.40726,6.41141 -1.60763,8.54022 -4.24219,7.51954 -1.12576,-0.43609 -2.48548,-0.39467 -3.02148,0.0918 -1.97209,1.78972 2.43041,2.70783 6.81445,1.42188 3.60747,-1.05808 4.78433,-1.939 5.89258,-4.41797 1.11504,-2.49421 0.94911,-3.78664 -0.85156,-6.63672 -0.92239,-1.45984 -1.9773,-2.64981 -2.6836,-3.08789 -0.23543,-0.146 -0.43206,-0.20869 -0.57226,-0.16992 z M -400,722.63867 c -0.21564,-0.0256 -0.39181,-0.0222 -0.52148,0.0137 -0.89964,0.24868 -1.80784,0.75306 -2.01758,1.12305 -0.34047,0.60061 16.53226,9.34527 17.63672,9.14063 0.24726,-0.0458 0.42659,-0.64679 0.40039,-1.33594 -0.0334,-0.8835 -3.51818,-3.25879 -7.25586,-5.3418 -3.27046,-1.82267 -6.73274,-3.42046 -8.24219,-3.59961 z m -40.84766,1.37305 c -0.82376,-0.0642 -2.23791,0.14694 -4.33203,0.62109 -5.28629,1.19693 -9.39843,3.2869 -9.03711,4.59375 0.31344,1.13418 13.20241,-2.46621 14.02539,-3.91797 0.31924,-0.56316 0.32651,-0.9413 -0.0254,-1.14062 -0.14662,-0.0831 -0.35627,-0.13486 -0.63086,-0.15625 z m 83.32618,60.00781 c -1.36861,0.0347 -2.24682,1.28708 -1.42969,2.77735 0.87282,1.59198 -0.81906,3.89338 -1.89844,2.58203 -0.68371,-0.83059 -1.64889,-0.1634 -3.55273,2.45898 -7.7584,10.68671 -31.81292,14.28173 -52.68946,7.875 -7.27076,-2.23128 -19.88699,-3.63138 -22.04687,-2.44727 -0.57453,0.31494 -4.08189,0.33019 -7.79492,0.0332 -3.71316,-0.29698 -9.03033,0.0643 -11.81641,0.80273 -3.3412,0.88544 -5.44309,0.88274 -6.17578,-0.008 -0.61093,-0.74221 -1.89441,-1.20838 -2.85156,-1.03711 -0.95726,0.17128 -2.2164,-0.26737 -2.79688,-0.97266 -0.60516,-0.73515 -1.57807,-0.85025 -2.28125,-0.27148 -1.31111,1.07917 -3.94308,0.14987 -3.21484,-1.13477 0.78746,-1.38913 -2.54751,-3.79673 -3.81446,-2.7539 -0.77197,0.63545 -2.18911,0.32953 -3.99804,-0.86328 -3.04,-2.0046 -4.9816,-2.03426 -4.39063,-0.0684 0.81783,2.72054 8.62279,9.56557 14.86719,13.04101 10.68913,5.94862 14.5806,6.96387 24.45508,6.37696 16.08186,-0.9557 17.2721,-0.92053 24.33398,0.70507 3.8295,0.88158 7.20054,1.73619 7.49024,1.90039 0.2923,0.16571 -2.22895,4.60965 -5.59961,9.87696 -6.53856,10.2179 -8.28858,14.43818 -6.42578,15.49414 0.63641,0.36077 2.21714,2.79831 3.51367,5.41797 l 0.002,0 c 2.73723,5.53115 2.21307,4.898 4.30664,5.21289 1.26321,0.18996 2.38401,-0.99941 4.55664,-4.83203 l 2.88086,-5.08203 -2.53906,-8.68164 c -2.46807,-8.43679 -2.46684,-8.80523 -0.0352,-13.11524 l 2.50196,-4.43555 8.47265,0.76953 c 4.66002,0.42292 9.7011,0.881 11.20313,1.01954 5.94543,0.54854 13.11999,0.24038 16.05468,-0.69141 8.49426,-2.69678 17.05999,-11.28714 17.20508,-17.25391 0.084,-3.45534 0.8407,-4.15544 2.6211,-2.42382 1.34741,1.31041 1.65421,1.23478 1.89453,-0.47071 0.15758,-1.11869 0.79166,-3.42586 1.41211,-5.1289 0.90186,-2.47585 0.71629,-3.33146 -0.93164,-4.26563 -0.52058,-0.2951 -1.03208,-0.41783 -1.48828,-0.40625 z"
       id="path16586"
       inkscape:connector-curvature="0" />
    <path
       style="fill:#ffffff"
       d="m -455.05273,652.46875 c -0.11022,-0.0376 -0.21437,0.32668 -0.37696,1.07227 -0.25407,1.16502 -2.53806,2.01985 -7.32422,2.74414 -12.25242,1.85403 -17.65239,3.79309 -18.43164,6.61718 -0.37709,1.36682 -1.52852,4.42487 -2.55859,6.79493 l -1.87109,4.30859 6.10351,-1.83008 c 3.35746,-1.00577 6.36072,-2.27971 6.67383,-2.83203 0.31345,-0.55242 0.45413,-1.41853 0.31445,-1.92383 -0.60901,-2.20317 2.2182,-5.44 5.37891,-6.16015 3.36579,-0.76679 10.09709,0.38282 13.48047,2.30078 1.00234,0.56823 3.07034,0.63853 4.5957,0.1582 2.72646,-0.8585 4.62138,0.0989 7.45508,3.77148 0.93991,1.21815 1.41337,1.05508 2.50195,-0.86523 1.17321,-2.0696 1.04882,-2.42809 -0.98242,-2.83008 -4.81085,-0.95211 -13.96099,-7.23062 -14.54883,-9.98437 -0.18441,-0.86386 -0.29991,-1.3042 -0.41015,-1.3418 z m 89.02929,5.23633 c -3.01357,0.0191 -5.29311,0.91653 -9.66406,3.61133 -3.45829,2.13224 -6.39134,4.0605 -6.51758,4.2832 -0.1263,0.2228 0.74913,0.96059 1.94531,1.63867 1.54761,0.87734 2.44267,0.76 3.10157,-0.40234 1.21295,-2.13971 3.30785,-2.39641 7.50586,-0.92188 1.96736,0.69104 5.11722,0.69741 7.39257,0.0156 5.38177,-1.61236 9.542,0.69869 10.81641,6.00586 1.16054,4.83359 8.35305,10.97405 10.64453,9.08789 1.99559,-1.6426 0.10093,-7.78848 -3.79492,-12.3125 -2.34212,-2.71974 -5.86437,-5.36273 -9.55078,-7.375 -3.68642,-2.01227 -7.53619,-3.39318 -10.5332,-3.58789 -0.46875,-0.0305 -0.9152,-0.046 -1.34571,-0.043 z m -90.17968,11.49414 c -0.50906,0.0617 -1.50613,0.31651 -2.5625,0.66601 -1.40857,0.46603 -2.12165,1.09476 -1.58594,1.39844 0.53579,0.30374 1.83601,0.006 2.89062,-0.66015 1.0546,-0.66661 1.76979,-1.29531 1.58789,-1.39844 -0.0455,-0.0259 -0.16042,-0.0265 -0.33007,-0.006 z m -5.84571,1.67773 -5.06445,1.72657 c -5.34915,1.82227 -6.73122,2.82055 -4.38281,3.17382 0.78168,0.11758 3.22873,-0.93709 5.43554,-2.34375 l 4.01172,-2.55664 z"
       id="path16580"
       inkscape:connector-curvature="0" />
    <path
       style="fill:#000000"
       d="m -429.35742,730.71289 c -3.2981,0.008 -6.69106,0.23354 -8.45899,0.5957 -2.35727,0.4828 -4.53495,0.75693 -4.83984,0.60938 -0.30499,-0.14737 -5.12889,0.86846 -10.71875,2.25781 -12.66953,3.14929 -14.99301,5.19042 -21.93359,19.25 -4.11206,8.33001 -7.58396,17.12233 -8.49219,21.50781 -0.32373,1.56327 0.0283,1.77222 5.11719,3.06836 2.20987,0.5628 6.92257,0.65049 10.47265,0.19532 3.55012,-0.45526 6.63519,-0.72446 6.85547,-0.59961 0.50413,0.28578 17.5496,0.004 21.61133,-0.35743 1.66447,-0.14803 5.84206,-0.21602 9.2832,-0.15234 3.44114,0.0637 7.29796,0.10373 8.57032,0.0898 4.60093,-0.0504 23.96583,1.89202 25.0625,2.51368 0.61808,0.35039 1.42021,0.41881 1.7832,0.15039 0.86153,-0.6373 23.37059,3.76573 25.54101,4.99609 0.91788,0.52033 2.91424,0.30391 4.43555,-0.47851 2.68195,-1.37939 2.73959,-1.53245 1.84766,-5.05079 -0.50589,-1.99574 -0.6945,-4.03023 -0.41602,-4.52148 0.53078,-0.93632 -4.44619,-16.25513 -7.60156,-23.39453 -1.01132,-2.28835 -3.3711,-6.05693 -5.24414,-8.375 -1.60972,-1.99207 -2.56356,-3.08065 -4.00391,-3.97461 -1.44035,-0.89398 -3.36759,-1.59369 -6.92187,-2.80664 -10.17953,-3.47396 -19.79694,-5.40587 -26.11914,-5.24414 -2.88687,0.0738 -8.5694,-0.0212 -12.62696,-0.21289 -1.01441,-0.048 -2.10376,-0.0692 -3.20312,-0.0664 z"
       id="path16506"
       inkscape:connector-curvature="0" />
    <path
       style="fill:#ffffff"
       d="m -432.1543,737.59375 c -4.07206,0.0816 -10.25557,0.71811 -17.52148,1.82422 -3.61287,0.54993 -13.2037,5.68659 -14.35938,7.69141 -0.36081,0.6162 1.5708,0.5466 4.28125,-0.16016 2.7104,-0.70674 5.40645,-1.01368 5.99219,-0.68164 0.58572,0.33205 1.94881,0.26828 3.02734,-0.14063 1.07867,-0.40894 4.59193,-0.79005 7.80665,-0.84765 3.21468,-0.0576 9.05697,-0.2987 12.98437,-0.53516 3.92743,-0.23616 10.17585,-0.23605 13.88477,-0.002 3.70892,0.23411 7.59696,0.10076 8.64062,-0.29492 1.04376,-0.39563 2.24958,-0.51923 2.67969,-0.27539 0.4301,0.24378 2.94487,0.29358 5.58594,0.11132 2.64106,-0.18226 5.70046,0.10206 6.80078,0.63086 1.10061,0.52851 4.35045,1.62114 7.22461,2.42969 3.35312,0.94328 5.44274,1.98348 5.82812,2.90234 0.88116,2.10065 2.97529,4.34144 3.37891,3.61524 0.1949,-0.3438 -0.44305,-1.95442 -1.41016,-3.57617 -0.90295,-1.514 -2.78449,-3.05964 -5.14258,-4.35938 l 0,-0.002 c -2.35812,-1.29969 -5.19265,-2.35291 -7.99804,-2.88281 -1.42771,-0.26964 -4.76156,-1.44314 -7.41016,-2.60743 -4.59567,-2.02032 -16.83843,-3.35066 -24.04883,-2.61328 -1.71637,0.1755 -4.81916,0.12131 -6.89453,-0.12109 -0.84987,-0.0995 -1.97272,-0.13267 -3.33008,-0.10547 z m 2.50196,30.44531 c -10.89411,-0.0227 -19.53492,0.69064 -24.08399,2.04688 -1.67548,0.49938 -3.48888,0.65792 -4.02929,0.35156 -1.55042,-0.87888 -12.21853,1.26046 -12.17383,2.44141 0.0467,1.23439 0.40242,1.2455 10.05078,0.35547 4.00265,-0.36922 8.00762,-0.59019 8.90039,-0.49219 0.89282,0.0979 6.68222,-0.0786 12.86523,-0.39063 6.18296,-0.31192 12.2161,-0.45919 13.40625,-0.32812 1.19015,0.13107 5.62089,0.52868 9.84571,0.88281 16.10561,1.34975 26.6155,2.56217 30.36132,3.50195 6.37644,1.59963 8.73207,0.88742 6.07227,-0.68359 -0.88659,-0.52368 -2.33107,-1.14194 -4.36914,-1.80273 -11.22415,-3.63911 -19.30277,-4.92591 -35.26758,-5.61133 -4.06363,-0.17449 -7.94676,-0.26349 -11.57812,-0.27149 z"
       id="path16500"
       inkscape:connector-curvature="0" />
    <path
       style="fill:#000000"
       d="m -374.82227,761.22266 c 0.1079,0.003 0.22684,0.0376 0.35352,0.10937 0.50675,0.28726 0.69896,0.91413 0.42773,1.39258 -0.27124,0.4785 -0.66396,0.77198 -0.875,0.65234 -0.21096,-0.11959 -0.40522,-0.7465 -0.42968,-1.39257 -0.0184,-0.48458 0.19974,-0.7701 0.52343,-0.76172 z"
       id="path16492"
       inkscape:connector-curvature="0" />
    <path
       style="fill:#000000"
       d="m -345.98633,814.59961 c 0.0931,-0.0214 0.17272,-0.0203 0.23828,0.002 0.91787,0.31167 -0.81022,4.82264 -4.40429,11.28516 -2.31743,4.16654 -4.80198,8.06016 -5.52149,8.65234 -2.53544,2.08697 -2.83592,0.14889 -0.61914,-3.99218 3.70299,-6.91756 8.96479,-15.25129 9.98633,-15.81641 0.12066,-0.0667 0.2272,-0.10947 0.32031,-0.13086 z"
       id="path16482"
       inkscape:connector-curvature="0" />
    <path
       style="fill:#ffffff"
       d="m -524.98242,846.47266 c -0.11883,0.0112 -0.21898,0.0335 -0.29688,0.0684 -0.62278,0.27918 -2.55248,2.99968 -4.28906,6.04687 -2.76779,4.85616 -3.16458,6.54739 -3.20898,13.69922 -0.0678,10.92965 0.89711,14.75106 6.38476,25.33008 2.56052,4.9362 5.28818,11.46059 6.06446,14.5 0.77611,3.03945 2.03042,5.87966 2.7871,6.30859 1.83236,1.03873 4.75564,29.75255 3.07618,30.2168 -0.44437,0.12283 -1.43435,-1.90845 -2.19922,-4.51172 -1.2579,-4.28083 -1.81257,-4.93327 -5.78906,-6.83789 -3.69196,-1.76835 -5.20009,-3.31248 -9.41407,-9.63281 -4.87045,-7.30482 -5.05323,-7.46936 -6.13086,-5.56836 -1.31623,2.32188 -1.66713,9.72096 -0.66601,14.0332 0.39126,1.68534 0.10325,4.27685 -0.64063,5.75781 -0.99659,1.98434 -0.77732,4.88562 0.83203,11.0293 1.20113,4.58517 3.41032,13.94636 4.91016,20.80273 1.49983,6.85636 3.45678,14.69041 4.34766,17.40821 2.34786,7.16249 11.5249,44.52951 11.80664,48.07421 0.13149,1.6551 0.63181,5.1214 1.11132,7.7031 0.47962,2.5815 1.25653,8.577 1.72657,13.3242 0.0107,0.108 0.026,0.2002 0.0371,0.3066 l 12.66992,0 c 1.6625,-1.8714 3.40858,-4.5591 6.01758,-9.1093 5.25761,-9.1692 6.20121,-11.3166 11.10156,-25.2637 1.47317,-4.1926 3.12381,-7.9896 3.66797,-8.4375 0.54429,-0.4479 0.71635,-1.3107 0.38476,-1.916 -1.00517,-1.8333 2.10215,-6.1461 6.37696,-8.8516 2.2184,-1.40362 6.8638,-3.21028 10.32226,-4.01361 3.45846,-0.80333 6.57218,-1.96323 6.92188,-2.58007 0.34974,-0.61699 -1.54768,-4.40612 -4.2168,-8.41993 -2.66916,-4.01394 -6.19186,-10.42225 -7.82812,-14.24023 -2.71411,-6.3329 -6.78567,-13.45567 -12.17774,-21.29688 -1.12627,-1.63784 -1.87291,-3.28528 -1.6582,-3.66406 0.21477,-0.37886 -0.15572,-0.99715 -0.82227,-1.375 -0.66655,-0.37785 -1.10408,-1.4035 -0.97265,-2.27734 0.13142,-0.87383 -0.46848,-1.98983 -1.33399,-2.48047 -0.86551,-0.49063 -2.04468,-1.85984 -2.62109,-3.04297 -2.52127,-5.17536 -7.9963,-13.3205 -9.54297,-14.19727 -0.92815,-0.52613 -2.47802,-2.17826 -3.44336,-3.66992 -0.9652,-1.4917 -2.36946,-3.06265 -3.12109,-3.49219 -1.88938,-1.08253 -14.46352,-23.43315 -16.37305,-29.10546 -5.15517,-15.31293 -5.11109,-22.06928 0.20508,-31.44727 l 3.60156,-6.35351 -3.38672,-1.63086 c -1.62919,-0.78554 -3.38893,-1.27116 -4.2207,-1.19336 z m 183.88867,6.79687 c -0.29067,0.0215 -0.56942,0.36575 -0.94336,1.02539 -0.71478,1.26091 0.37061,3.63947 4.22852,9.27149 6.53426,9.53898 9.58899,17.30011 9.52539,24.19921 -0.062,6.73336 -4.15558,17.8658 -12.69141,34.51563 -3.51594,6.85807 -7.52221,15.25283 -8.90234,18.6543 -1.38003,3.40152 -3.33559,7.20654 -4.34766,8.45507 -3.47345,4.28553 -17.01631,14.36254 -23.57227,17.53907 -5.552,2.6902 -15.64688,8.39584 -23.39062,13.22461 -1.08453,0.67621 -4.14124,2.10978 -6.79102,3.18359 -8.67412,3.51534 -11.7458,6.57159 -20.11328,20.01371 -8.93357,14.3512 -9.878,16.7887 -6.74023,17.4336 1.20096,0.2469 5.13174,1.4578 8.73437,2.6894 3.60271,1.2315 6.76263,2.1709 7.01954,2.0859 0.59655,-0.1963 6.87653,-6.9139 9.45507,-10.1132 1.88331,-2.3368 1.80513,-2.6514 -1.78515,-7.1875 -4.31646,-5.4535 -5.78859,-11.24004 -3.76563,-14.80863 3.52968,-6.22654 5.8239,-5.4352 12.44531,4.29883 6.41909,9.4363 7.10103,9.6458 29.61329,9.1152 20.12563,-0.4744 25.06758,0.577 39.72656,8.4375 4.56877,2.4499 8.65397,4.1431 9.07812,3.7637 0.75821,-0.678 5.39353,-3.1416 9.0293,-4.7988 1.54087,-0.7023 1.66621,-1.8818 0.74805,-7.0469 -0.6066,-3.4123 -1.48856,-11.33654 -1.95899,-17.60937 -0.47035,-6.27276 -0.9781,-11.73232 -1.12695,-12.13281 -0.51251,-1.37899 -3.93558,-27.50887 -3.66602,-27.98438 0.53669,-0.94676 -1.10453,-6.14799 -1.87304,-5.93555 -1.23178,0.34042 -4.31656,17.68871 -4.69336,26.39453 -0.18703,4.31964 0.50738,11.43798 1.54297,15.81836 1.80632,7.64087 1.77653,8.11324 -0.73829,11.6504 -3.98525,5.60552 -9.4506,10.73632 -10.6875,10.03512 -1.01136,-0.5733 -4.6347,-9.77017 -4.92968,-12.51169 -0.19793,-1.83841 1.18937,-2.09425 2.80859,-0.51953 1.64943,1.60415 3.65211,-0.49124 2.11133,-2.20898 -0.69575,-0.77558 -0.37853,-1.30151 1.51172,-2.50196 1.91107,-1.21347 2.62547,-2.40668 3.54687,-5.93554 0.63435,-2.42978 1.01701,-5.27123 0.84961,-6.31446 -0.16735,-1.04318 -0.14885,-3.10128 0.041,-4.57422 0.18996,-1.47287 0.55163,-5.92266 0.80469,-9.88867 0.5725,-8.97422 1.27172,-14.39382 2.66406,-20.61718 0.59621,-2.66506 0.85321,-4.97635 0.57031,-5.13672 -0.28291,-0.16037 -1.2941,1.72325 -2.24805,4.18554 -0.95395,2.4623 -2.58201,6.32384 -3.61718,8.58203 -9.6264,21.00029 -11.68048,25.11671 -12.6875,25.40821 -3.16825,0.91715 -2.23545,-2.99192 3.83398,-16.0586 1.6272,-3.50314 3.66306,-8.81517 4.52344,-11.80468 0.86046,-2.98945 3.00846,-9.53148 4.77344,-14.53711 1.76497,-5.0056 3.35233,-10.1185 3.52734,-11.35938 0.17507,-1.2408 1.1471,-4.3091 2.16016,-6.82031 1.01297,-2.51126 1.98091,-5.52022 2.15234,-6.6875 0.17154,-1.16721 0.84147,-4.66676 1.48828,-7.77734 2.68721,-12.92243 0.47866,-24.36992 -6.72266,-34.83985 -2.85712,-4.15382 -5.86117,-7.92883 -6.67578,-8.39062 -0.8147,-0.46184 -2.0077,-1.67534 -2.65234,-2.69532 -0.36473,-0.57698 -0.6461,-0.94176 -0.89453,-1.09765 -0.1035,-0.0649 -0.20193,-0.0929 -0.29883,-0.0859 z m -117.46484,154.87697 0,0 c -0.0951,-0.01 -0.18765,-0.01 -0.27735,0 -1.55551,0.1605 -2.30775,2.8448 -1.67383,6.7422 0.49617,3.0503 0.28984,5.338 -0.54296,6.0235 -0.73831,0.6078 -1.36729,2.089 -1.39649,3.291 -0.0556,2.2839 1.28086,3.7427 2.10156,2.2949 0.26182,-0.4618 2.40936,-1.5091 4.77149,-2.3301 5.14424,-1.7883 5.66369,-2.4997 3.86523,-5.2969 -0.75596,-1.1759 -2.15385,-3.8611 -3.10742,-5.9687 -0.95349,-2.1075 -2.22263,-4.1096 -2.81836,-4.4473 -0.32793,-0.1858 -0.63659,-0.2865 -0.92187,-0.3105 z m 57.41406,7.1113 c -0.57771,0.026 -1.05426,0.1299 -1.3457,0.3203 -3.69117,2.4116 -10.25523,8.0627 -11.10547,9.5625 -0.87466,1.543 -0.59287,1.7836 3.55664,3.0254 3.41159,1.0208 4.78027,1.8559 5.63672,3.4356 0.62224,1.1475 1.35329,2.0232 1.62695,1.9472 0.27357,-0.076 4.67183,-2.8813 9.77344,-6.2363 7.5694,-4.9777 10.07305,-7.1654 8.17578,-8.4238 -0.12659,-0.084 -0.27209,-0.1643 -0.4375,-0.2403 -0.88214,-0.4063 -2.31655,-0.711 -4.26953,-0.998 -2.76543,-0.4064 -6.49511,-1.2462 -8.28711,-1.8672 -1.12,-0.3881 -2.36137,-0.5684 -3.32422,-0.5254 z m -70.33789,3.7363 c -0.0836,-0.021 -0.15393,-0.019 -0.20703,0.01 -1.38565,0.7596 -1.04347,1.7954 1.63867,4.9414 2.10567,2.4696 5.6343,5.2744 5.24609,4.1699 -0.91503,-2.603 -4.84813,-7.9826 -6.38672,-8.9746 -0.1099,-0.072 -0.20741,-0.1215 -0.29101,-0.1445 l 0,0 z m 94.07812,3.293 c -1.44664,0.039 -3.2033,1.2848 -7.74218,4.5606 -4.04777,2.9213 -9.41372,6.4735 -11.92579,7.8945 l -4.56835,2.584 -8.25391,17.205 7.49609,0 c 0.34318,-0.272 0.80715,-0.4103 1.20313,-0.3613 0.14136,0.017 0.27308,0.059 0.38672,0.1231 0.10044,0.057 0.18707,0.1434 0.26757,0.2382 l 22.38086,0 c 2.23667,-4.4285 5.35244,-10.5439 8.09961,-15.8671 3.38474,-6.5587 6.07873,-12.1972 5.98633,-12.5313 -0.0115,-0.041 -0.0463,-0.083 -0.10547,-0.125 -0.41239,-0.2939 -1.92321,-0.5799 -3.65039,-0.6719 -1.97386,-0.1047 -5.02072,-1.0017 -6.77148,-1.9941 -1.17789,-0.6677 -1.93475,-1.0787 -2.80274,-1.0547 z m -100.87695,4.5723 c -0.0737,10e-4 -0.15112,0.011 -0.23242,0.031 -1.42049,0.3446 -5.37477,7.3781 -10.16992,18.086 -1.66833,3.7257 -3.55736,6.8979 -5.6836,9.5546 l 21.17969,0 c -0.0418,-0.2599 -0.0707,-0.5058 -0.11719,-0.7695 -1.17213,-6.6534 -0.83737,-15.092 0.70703,-17.8164 1.10077,-1.9418 0.0838,-3.7353 -3.16015,-5.5742 -1.11718,-0.6333 -1.92821,-1.7399 -1.80274,-2.459 0.10972,-0.6293 -0.20491,-1.0627 -0.7207,-1.0527 z m 112.92969,14.3711 c -0.43514,-0.2467 -3.12409,4.1071 -8.22071,13.3007 l 9.23047,0 c -0.0713,-0.096 -0.15711,-0.1744 -0.25976,-0.2324 -0.32397,-0.1836 -0.42197,-3.0832 -0.21875,-6.4453 0.20322,-3.362 -0.0365,-6.3425 -0.53125,-6.623 z"
       id="path16714"
       inkscape:connector-curvature="0" />
    <path
       style="fill:#000080"
       d="m -539.23242,894.95117 -5.69727,9.41406 c -6.77589,11.19218 -20.847,39.71198 -22.76758,46.14649 -3.28278,10.99772 -6.07273,23.17042 -6.9082,30.13867 -1.83178,15.27742 -7.37082,53.54481 -10.59375,73.88081 l 14.52344,0 c 0.44079,-0.2726 0.85844,-0.5521 1.30859,-0.8183 l 7.91602,-4.6817 1.66406,-5.3789 c 0.91579,-2.9581 1.4625,-6.7257 1.21289,-8.375 -0.24975,-1.6492 -0.0401,-3.7308 0.4668,-4.625 0.50686,-0.8941 0.96628,-3.5315 1.02148,-5.8593 0.0552,-2.3279 0.38396,-4.7349 0.73242,-5.3496 0.34851,-0.6148 0.98086,-5.4366 1.40235,-10.7168 1.16785,-14.63149 1.50394,-17.80351 2.62305,-24.64262 1.6842,-10.29312 3.0723,-22.27167 2.8125,-24.26757 -0.1333,-1.0239 0.12079,-3.72735 0.5625,-6.00586 0.44159,-2.27856 0.96906,-6.52527 1.17187,-9.43946 0.2029,-2.91414 0.80805,-6.70973 1.3457,-8.43359 0.53773,-1.72381 1.15033,-6.51529 1.35938,-10.64844 0.2092,-4.13318 0.68628,-8.05897 1.0625,-8.72265 0.37628,-0.66377 1.60554,-5.79763 2.73242,-11.41016 l 2.04883,-10.20508 z m -38.30664,9.33789 c -0.33257,-0.004 -0.71142,0.0481 -1.13672,0.1543 -1.00618,0.25128 -4.96348,0.71221 -8.79102,1.02539 -3.82754,0.31317 -9.99608,1.16037 -13.70898,1.88086 -3.71289,0.72048 -11.07339,1.63609 -16.35742,2.03516 -5.28403,0.39908 -14.29977,1.70071 -20.03321,2.89257 -5.73334,1.19168 -12.32031,2.31769 -14.63867,2.50391 -2.31835,0.18622 -8.60951,1.38141 -13.98242,2.6543 l -9.76953,2.31445 -5.20703,8.87109 0,34.65821 c 1.38959,-3.42103 4.25617,-9.51121 7.41406,-15.66407 7.37369,-14.36697 7.76132,-14.95081 9.1543,-13.76562 1.30239,1.10798 0.7458,2.73508 -5.31836,15.53516 -3.72541,7.86328 -6.86749,15.12824 -6.98242,16.14453 -0.44548,3.94004 3.60754,-1.92472 10.6582,-15.42578 6.00316,-11.49527 7.28337,-13.47464 8.12305,-12.54688 0.75081,0.82943 -0.45647,4.08603 -4.89454,13.18945 -8.84696,18.14728 -6.72777,17.27198 4,-1.65234 7.87085,-13.88455 9.4785,-16.26029 10.8711,-16.05078 0.89903,0.13525 1.69963,0.48124 1.77929,0.76953 0.1672,0.60478 -17.75795,34.07557 -34.80468,65.11523 l 0,48.01567 c 9.5008,-15.2743 14.54382,-22.7213 15.66015,-22.9454 0.0892,-0.018 0.15512,0.01 0.19922,0.072 0.39316,0.5854 -2.72316,6.5665 -8.43945,16.1953 -3.8359,6.4615 -6.26804,10.8675 -7.41992,13.3653 l 0,0.9003 1.13476,0 c 0.95978,-1.0733 2.16541,-2.6347 3.38282,-4.4179 13.31434,-19.5018 19.02891,-27.283 19.96289,-27.1719 0.0301,0 0.0539,0.015 0.0742,0.035 0.43053,0.4224 -2.40589,6.2205 -7.03515,14.3867 -8.75507,15.4444 -8.76957,15.7292 -0.87305,16.0898 1.04065,0.048 3.13262,0.46 5.70508,1.0781 l 26.66797,0 c -5.84129,-3.8453 -9.60447,-7.0379 -9.69727,-8.4277 -0.0482,-0.7211 1.29015,-3.1916 2.97266,-5.4922 2.66109,-3.6389 2.90037,-4.4345 1.8418,-6.1093 -0.66931,-1.0587 -1.11014,-2.7827 -0.97852,-3.8321 0.36872,-2.9379 2.97181,-8.2131 4.32227,-8.7617 0.66539,-0.2702 2.36561,-3.4587 3.77734,-7.084 1.41173,-3.6253 5.52741,-11.6365 9.14844,-17.80272 3.62112,-6.16619 10.14373,-18.50406 14.49414,-27.41796 4.35049,-8.91385 10.08678,-20.4054 12.74805,-25.53516 8.52227,-16.42683 13.87151,-27.97095 12.79101,-27.60742 -1.38224,0.46491 -13.79928,14.14804 -15.37695,16.94531 -0.67808,1.19618 -4.29739,5.86826 -8.05078,10.37891 -10.49216,12.60907 -23.08157,28.76161 -29.78321,38.21093 -6.09482,8.59381 -7.17613,9.71805 -7.66015,7.9668 -0.22724,-0.82209 19.12227,-31.42071 24.95508,-39.46289 l 2.0664,-2.85156 -2.64062,2.52734 c -4.89919,4.686 -14.22957,15.43236 -19.88672,22.9043 -4.35568,5.75278 -5.74977,7.08408 -6.19336,5.91406 -0.31512,-0.83132 0.27915,-2.67975 1.32226,-4.11328 3.78952,-5.20849 11.1824,-14.72036 14.39063,-18.51367 1.80714,-2.13669 4.84561,-6.04068 6.75195,-8.67578 1.90637,-2.63496 5.29924,-6.65923 7.54102,-8.94336 2.24174,-2.28404 4.77201,-5.05031 5.62304,-6.14844 4.47832,-5.77832 16.67809,-16.98494 17.79883,-16.34961 0.65828,0.37316 -4.17847,6.84242 -8.60547,11.50781 -1.46496,1.54383 -2.47803,3.14851 -2.25,3.56446 0.22803,0.41595 2.01803,-0.99113 3.97657,-3.125 7.077,-7.7108 11.49393,-11.56988 15.51953,-13.5586 3.46001,-1.70924 4.24725,-2.56191 5.04297,-5.45703 0.72643,-2.64279 0.56214,-4.21289 -0.4961,-4.71484 -0.2405,-0.11404 -0.5268,-0.17374 -0.85937,-0.17774 z m 259.25195,4.16016 c -0.2441,0.009 -0.38219,0.11132 -0.40039,0.31445 -0.0406,0.45117 -0.18556,3.98937 -0.32227,7.86328 -0.20027,5.67478 0.15928,7.27532 1.84766,8.23243 1.15259,0.65332 2.67913,2.73926 3.39063,4.63671 1.38286,3.6881 5.94752,11.00161 7.37109,11.8086 2.00496,1.13657 16.66973,23.25721 17.86719,26.95117 1.94396,5.99725 4.51458,12.17481 5.23632,12.58398 0.34966,0.1982 1.30773,2.29211 2.12891,4.6543 0.8211,2.36214 1.90642,4.52974 2.41211,4.81641 0.50579,0.28672 1.50294,1.92031 2.21484,3.6289 0.71197,1.70865 3.51368,7.56495 6.22657,13.01365 5.82688,11.703 11.02227,22.8789 12.60547,27.1153 0.62427,1.6705 2.59473,7.0266 4.3789,11.9043 1.38921,3.798 2.77018,7.1455 3.50586,8.5585 l 94.61524,0 c -0.47499,-1.7545 -0.91552,-3.3294 -1.40625,-5.1757 -1.41268,-5.3149 -3.33343,-10.7084 -4.26758,-11.9864 -1.36849,-1.872 -1.3586,-2.8163 0.043,-4.8574 0.95675,-1.3935 1.81856,-2.5759 1.91796,-2.6289 0.0991,-0.053 0.6916,1.5741 1.31446,3.6172 0.84569,2.7741 3.95458,12.1451 6.9375,21.0312 l 2.29687,0 c -0.51047,-2.3576 -1.01181,-4.9386 -1.38281,-7.1855 -0.7486,-4.5339 -2.38675,-11.6442 -3.64258,-15.8027 -2.0613,-6.8257 -2.38641,-11.0261 -1.03711,-13.4063 0.51791,-0.9137 5.07416,10.4728 8.20508,20.5039 1.06632,3.4165 2.15433,5.8323 2.41797,5.3672 1.04691,-1.8468 -5.76211,-29.8959 -7.49609,-30.8789 -1.274,-0.7222 0.18597,-3.0659 1.73828,-3.0879 0.10348,0 0.20898,0.01 0.3125,0.027 2.51019,0.4941 9.8725,23.4935 14.53711,44.4628 l 13.57031,0 -0.38867,-5.9277 c -0.41551,-6.3549 -0.71482,-14.6347 -0.66602,-18.4004 0.0488,-3.7657 -0.28222,-10.839 -0.73633,-15.7207 -0.45417,-4.8817 -0.78096,-11.0153 -0.72656,-13.6308 0.0545,-2.61589 -0.0791,-6.2593 -0.29687,-8.09574 -0.21764,-1.83639 -0.28287,-3.5391 -0.14454,-3.7832 0.22612,-0.39879 0.36501,-14.76578 0.3125,-32.46485 -0.0107,-3.59378 0.20385,-9.63984 0.47852,-13.43554 0.34949,-4.83003 0.0115,-7.17802 -1.125,-7.82227 -2.61009,-1.4796 -15.32952,-3.61334 -24.08008,-4.04102 -4.4447,-0.21727 -8.67662,-0.73482 -9.40625,-1.14843 -0.7297,-0.41365 -1.54908,-0.36129 -1.82031,0.11718 -0.27124,0.47839 -1.21618,0.46177 -2.09961,-0.0391 -0.88343,-0.5008 -5.69789,-1.16251 -10.69922,-1.46875 -5.00142,-0.3063 -9.28249,-0.66302 -9.51172,-0.79297 -0.22923,-0.12994 -2.49797,-0.42971 -5.04297,-0.66797 -2.545,-0.23825 -5.92613,-0.82795 -7.51171,-1.30859 -1.58563,-0.48076 -4.28553,-0.73666 -6,-0.56836 -2.61035,0.25622 -7.34335,-0.11927 -19.86329,-1.58203 -0.88947,-0.1037 -2.41597,-0.14752 -3.39257,-0.0977 -1.48418,0.0757 -27.81669,-1.65879 -43.77149,-2.88281 -6.85233,-0.52571 -13.92516,-1.25609 -17.10547,-1.76367 -4.05442,-0.64723 -4.49896,0.98685 -0.83398,3.06445 1.69143,0.95884 3.6241,2.79711 4.29492,4.08399 0.67073,1.28683 5.05427,6.06952 9.74023,10.6289 4.68606,4.55929 11.82823,12.03229 15.87305,16.60742 4.04482,4.57517 8.7253,9.55048 10.40039,11.05665 2.58451,2.32388 8.10381,8.80404 8.47071,9.94531 0.0627,0.19462 -0.47954,0.84601 -1.20899,1.44336 -1.1745,0.96673 -1.60089,0.75008 -3.81836,-1.92969 -1.37315,-1.65939 -5.55403,-5.836 -9.29101,-9.28125 -6.22835,-5.74224 -19.90816,-19.10836 -25.15235,-24.57617 -10.65083,-11.10486 -38.35218,-31.74148 -42.01367,-31.59961 z m 0.23438,27.05273 c -0.4285,-0.0384 -0.37047,0.80022 0.32617,2.64453 0.50566,1.33855 1.05407,4.6247 1.21679,7.30469 0.16271,2.68 1.08816,9.93115 2.05665,16.11133 0.96847,6.18019 2.19367,16.19293 2.7207,22.25195 0.98792,11.35567 3.5325,28.19355 4.53906,30.02935 0.95834,1.7477 -0.58765,3.3418 -4.72656,4.8789 l -3.94922,1.4668 1.67578,5.0917 c 2.02889,6.1667 3.07154,13.7569 2.12109,15.4336 -0.38288,0.6754 -1.86203,1.4902 -3.28711,1.8086 -2.66798,0.5962 -3.01002,0.3981 -15.40429,-8.8828 -2.99181,-2.2403 -3.55048,-2.3573 -4.37305,-0.9062 -1.09209,1.9265 -0.0102,7.5608 1.44141,7.5058 0.53988,-0.02 0.88005,0.6378 0.75586,1.4629 -0.12894,0.8571 0.57865,1.7131 1.65039,1.9981 1.82264,0.4848 1.7843,1.4642 -0.66797,10.83 l 77.2793,0 c -0.19396,-1.0522 -0.78693,-2.3867 -1.78711,-3.9648 -1.42451,-2.2475 -3.21788,-5.6454 -3.98438,-7.5488 -2.11132,-5.2428 -3.99676,-9.0397 -4.60156,-9.2696 -0.29872,-0.113 -1.22731,-2.1757 -2.06445,-4.5839 -0.83706,-2.4082 -1.83814,-4.5591 -2.22657,-4.7793 -0.38843,-0.2202 -1.34856,-2.446 -2.13281,-4.9453 -0.78426,-2.4993 -2.91449,-7.199 -4.73437,-10.4434 -1.8198,-3.2444 -3.73538,-7.0944 -4.25586,-8.5566 -0.78343,-2.20119 -4.49624,-9.32184 -12.70899,-24.38286 -0.60304,-1.10593 -1.32765,-2.56455 -1.61133,-3.24023 -1.78495,-4.25183 -8.56449,-16.17443 -9.96093,-17.51758 -0.92057,-0.88543 -1.5032,-1.91233 -1.29297,-2.28321 0.21018,-0.37076 -0.17101,-1.29465 -0.84766,-2.05273 -0.67665,-0.75809 -3.23373,-4.60135 -5.68164,-8.54101 -2.70547,-4.35407 -4.77021,-6.85593 -5.48437,-6.91993 z m 204.66796,4.33594 c -0.30949,-0.0277 -0.56231,0.006 -0.75,0.10938 -0.86897,0.47643 -1.62081,7.33403 -1.54101,14.06835 0.0113,0.95478 -0.11695,3.24451 -0.28516,5.08985 -0.16832,1.84543 -0.19323,5.71044 -0.0547,8.58984 0.1383,2.87944 0.12891,8.78859 -0.0215,13.12891 -0.1505,4.34029 -0.28427,8.92042 -0.29687,10.17773 -0.0126,1.25733 -0.12573,3.77925 -0.25,5.60547 -0.52873,7.76868 -0.69696,21.88248 -0.33204,27.66208 0.2165,3.4284 0.25954,7.5917 0.0977,9.252 -0.16193,1.6603 -0.069,6.2494 0.20703,10.1992 l 0.50195,7.1816 3.67969,-5.4785 c 0.41866,-0.6232 1.05464,-1.6648 1.79492,-2.9101 l 0,-101.67581 c -1.115,-0.57505 -2.06943,-0.9391 -2.75,-1 z m -430.29687,15.52539 c -0.35332,0.0977 -0.93213,3.90762 -1.28711,8.46484 -0.35498,4.55725 -0.79248,8.54108 -0.9707,8.85547 -0.17818,0.31431 -0.57393,3.75096 -0.87891,7.63477 -0.30497,3.88382 -0.73285,7.37463 -0.95117,7.75976 -0.21841,0.38523 -0.17899,3.51122 0.0859,6.94727 0.26499,3.43605 0.36237,6.45801 0.21679,6.71481 -0.14558,0.2568 -0.51752,3.5591 -0.82812,7.336 -0.90022,10.9456 -2.87434,26.8132 -4.17383,33.5605 -0.73389,3.8107 -1.38108,7.7279 -1.97266,11.8945 l 11.17774,0 c 0.0931,-1.1813 0.24899,-2.2895 0.46289,-3.0449 0.4524,-1.5978 1.09891,-6.6269 1.43555,-11.1777 0.71558,-9.6715 1.04587,-12.5073 1.73828,-12.5723 0.0461,0 0.0949,-5e-4 0.14453,0.024 0.11341,0.044 0.23411,0.1455 0.36914,0.291 0.6196,0.6665 0.45309,9.8201 -0.45313,26.4804 l 3.88282,0 c 0.007,-0.5518 -0.10845,-1.061 -0.36524,-1.373 -0.96119,-1.1677 0.937,-5.16 2.23633,-5.0547 0.0866,0.01 0.17165,0.033 0.25195,0.078 0.47844,0.2713 0.70048,0.7903 0.49414,1.1543 -0.10866,0.1917 -0.19555,2.2189 -0.25195,5.1953 l 12.26563,0 c -0.16288,-0.9139 -0.30654,-1.6794 -0.39454,-2.0058 -0.26281,-0.9749 -0.73022,-5.2752 -1.03711,-9.5586 -0.30687,-4.2834 -0.77488,-8.4298 -1.04101,-9.2129 -0.26604,-0.7831 -1.02418,-4.5747 -1.68359,-8.4258 -0.65941,-3.851 -1.4988,-7.3822 -1.86719,-7.8476 -0.36835,-0.4655 -1.34915,-3.6083 -2.17774,-6.9825 -0.82846,-3.3742 -3.49799,-13.72817 -5.93359,-23.01167 -2.43568,-9.28354 -5.19736,-20.35129 -6.13867,-24.5918 -0.8825,-3.97544 -1.87034,-7.20211 -2.28125,-7.50976 -0.0268,-0.0185 -0.0527,-0.0275 -0.0742,-0.0215 z"
       id="path16710"
       inkscape:connector-curvature="0" />
    <path
       style="fill:#000080"
       d="m -596.66406,965.98633 c -0.76267,0.0967 -2.32673,2.94608 -7.00586,12.04101 -3.76572,7.31959 -11.81394,22.25326 -17.88477,33.18556 l -11.03906,19.8769 2.00391,2.8555 c 3.10287,4.4205 12.06724,11.8887 17.90429,14.916 2.49692,1.295 2.75617,1.1803 4.0918,-1.832 0.78411,-1.7683 1.34445,-3.778 1.24805,-4.4648 -0.0964,-0.6869 0.82424,-3.5852 2.04492,-6.4395 1.22077,-2.8543 2.43014,-6.9366 2.6875,-9.0723 0.25732,-2.1355 1.18331,-5.175 2.05859,-6.7539 0.8754,-1.5787 1.51568,-4.9823 1.42188,-7.5644 -0.0938,-2.5821 0.11529,-5.2035 0.46484,-5.8262 0.66881,-1.1799 0.81423,-3.2222 1.40039,-18.98047 0.19579,-5.26293 0.69595,-11.79182 1.11133,-14.50976 0.41528,-2.71777 0.43451,-5.78935 0.043,-6.82227 -0.1199,-0.31569 -0.24439,-0.52879 -0.4082,-0.59179 -0.0444,-0.017 -0.0918,-0.0236 -0.14258,-0.0176 z"
       id="path16478"
       inkscape:connector-curvature="0" />
    <path
       style="fill:#000000"
       d="m -365.41016,859.125 c 0.10509,-0.002 0.19322,0.0144 0.26758,0.0508 0.44614,0.21739 0.33866,1.13852 -0.29687,2.99219 -1.91887,5.59749 -3.70432,6.80887 -2.71289,1.83984 0.63969,-3.20611 1.28802,-4.52268 2.3789,-4.82422 0.13637,-0.0377 0.2582,-0.0569 0.36328,-0.0586 z"
       id="path16468"
       inkscape:connector-curvature="0" />
    <path
       style="fill:#000000"
       d="m -342.99609,864.67578 c 0.0846,-0.0234 0.19889,0.0151 0.34179,0.11328 1.00013,0.68725 3.39247,4.30449 6.7168,10.17774 1.7211,3.04073 3.59043,12.93025 2.73047,14.44726 -0.75442,1.33084 -1.88987,0.12938 -2.51367,-2.66211 -0.32357,-1.44786 -1.06544,-2.90278 -1.65039,-3.23437 -0.58495,-0.3316 -1.22716,-1.51281 -1.42579,-2.62305 -0.19859,-1.11024 -1.69848,-4.0345 -3.33398,-6.49805 -2.02411,-3.04904 -2.75016,-5.28498 -2.27539,-7.00195 0.38366,-1.38732 1.01799,-2.61035 1.41016,-2.71875 z"
       id="path16466"
       inkscape:connector-curvature="0" />
    <path
       style="fill:#000000"
       d="m -512.51953,924.69531 c -0.81809,0.021 -0.96433,1.29427 -0.74414,4.52344 0.13454,1.97294 0.29492,4.6513 0.35742,5.95117 0.0625,1.29989 0.64346,5.3814 1.29102,9.07227 0.64751,3.69095 1.6712,6.69284 2.27343,6.66992 2.10815,-0.0798 0.0929,-24.58841 -2.125,-25.8457 -0.43314,-0.24554 -0.78003,-0.37809 -1.05273,-0.3711 z m 6.20312,16.86524 c -0.85286,-0.10626 -1.18201,4.26751 -0.21093,10.73242 0.38931,2.59154 1.04567,4.90242 1.45898,5.13672 1.4348,0.81336 1.71787,-5.37662 0.51172,-11.20508 -0.57944,-2.79996 -1.13626,-4.23766 -1.58203,-4.58399 -0.0613,-0.0476 -0.12088,-0.073 -0.17774,-0.0801 z m 11.86914,3.60547 c -0.19765,0.0416 -0.37857,0.21238 -0.54492,0.50586 -0.66733,1.17718 0.11798,11.07943 1.10742,13.96484 0.51264,1.49494 0.68385,3.15495 0.38086,3.68945 -0.30304,0.53458 -0.20358,2.96875 0.22071,5.40821 0.42433,2.4393 0.67853,6.46249 0.5664,8.94335 -0.11225,2.4809 0.73978,7.52829 1.89258,11.21485 1.15275,3.68643 2.66153,6.81635 3.35156,6.95508 0.69011,0.13878 2.14924,-1.05413 3.24414,-2.65039 2.68035,-3.90804 1.42929,-14.17323 -4.00195,-32.83204 -2.7656,-9.50111 -4.52077,-14.18926 -5.72461,-15.05859 -0.10032,-0.0724 -0.19604,-0.11862 -0.28906,-0.13867 -0.0698,-0.015 -0.13724,-0.0157 -0.20313,-0.002 z m -33.04687,3.57617 c -0.19088,-0.014 -0.36601,0.16221 -0.55859,0.50195 -1.12843,1.99061 4.37054,19.94521 6.84179,22.33789 2.33047,2.25656 4.15916,6.23558 5.33789,11.62109 0.35544,1.62401 1.01738,3.16295 1.47071,3.41993 1.26994,0.71991 8.33571,20.39535 8.95117,24.92575 0.30061,2.2123 0.1,6.8206 -0.44531,10.2403 -0.54546,3.4196 -0.42535,8.5286 0.26367,11.3535 0.68915,2.8248 1.64888,5.2162 2.13476,5.3125 0.88067,0.1748 5.98548,-3.7933 8.89258,-6.9102 0.84202,-0.9028 1.41379,-2.8913 1.26758,-4.4219 -0.14636,-1.5305 0.17866,-3.5787 0.72851,-4.5488 1.83151,-3.2471 -2.22311,-20.165 -7.88867,-32.90623 -0.99908,-2.24669 -3.53024,-6.56669 -5.62304,-9.59961 -2.09271,-3.03286 -4.58019,-7.33333 -5.5293,-9.55664 -1.04714,-2.45269 -2.41114,-4.14583 -3.4668,-4.30469 -1.1575,-0.17406 -2.56682,-2.54373 -4.21289,-7.08008 -1.86228,-5.13296 -2.88354,-6.74392 -4.12695,-6.52148 -1.19889,0.21446 -1.96441,-0.36562 -2.79492,-2.11133 -0.44903,-0.94367 -0.77165,-1.48374 -1.04493,-1.67383 -0.0684,-0.0474 -0.13364,-0.0735 -0.19726,-0.0781 z m -33.85938,104.58981 c -0.72815,0.029 -1.90467,0.4492 -3.42382,1.1992 l 4.33789,0 c -0.0171,-0.6859 -0.13658,-0.9804 -0.33985,-1.0957 -0.13945,-0.08 -0.3315,-0.1135 -0.57422,-0.1035 z"
       id="path16454"
       inkscape:connector-curvature="0" />
    <path
       style="fill:#000000"
       d="m -118.45508,938.88672 c 0.0594,-10e-4 0.11605,0.0223 0.16992,0.0723 0.12928,0.11996 0.24593,0.38722 0.36133,0.80469 0.23056,0.83408 0.0109,1.88185 -0.48437,2.32813 -0.49539,0.44624 -1.02279,0.36505 -1.17383,-0.18164 -0.15118,-0.54665 0.0646,-1.59442 0.48047,-2.32813 0.2602,-0.459 0.4682,-0.69186 0.64648,-0.69531 z"
       id="path16450"
       inkscape:connector-curvature="0" />
    <path
       style="fill:#800000"
       d="m -439.03516,1024.6113 c 0.32328,-0.013 0.62425,-0.012 0.90039,0 0.6312,0.033 1.1318,0.1382 1.4668,0.3281 0.93206,0.5284 5.59384,1.8872 10.35938,3.0215 7.05404,1.6788 10.98032,2.7335 13.22656,3.9375 2.24606,1.2042 2.81053,2.5569 3.14062,4.8359 0.50444,3.482 0.0218,4.8846 -4.78906,13.9141 -0.65969,1.2382 -1.33532,2.5536 -2.00976,3.8808 l -40.6875,0 c -1.11437,-4.4643 -1.81861,-7.666 -1.67579,-7.9179 0.24224,-0.4273 -0.60444,-2.7984 -1.88281,-5.2695 -1.27846,-2.4718 -2.52248,-4.9195 -2.76172,-5.4415 -0.23925,-0.5221 2.03689,-2.5942 5.05664,-4.6054 4.98234,-3.3185 14.80705,-6.4911 19.65625,-6.6856 z"
       id="path16428"
       inkscape:connector-curvature="0" />
  </g>
</svg>
