<?xml version="1.0" encoding="UTF-8" standalone="no"?>
<!-- Created with Inkscape (http://www.inkscape.org/) -->

<svg
   xmlns:dc="http://purl.org/dc/elements/1.1/"
   xmlns:cc="http://creativecommons.org/ns#"
   xmlns:rdf="http://www.w3.org/1999/02/22-rdf-syntax-ns#"
   xmlns:svg="http://www.w3.org/2000/svg"
   xmlns="http://www.w3.org/2000/svg"
   xmlns:sodipodi="http://sodipodi.sourceforge.net/DTD/sodipodi-0.dtd"
   xmlns:inkscape="http://www.inkscape.org/namespaces/inkscape"
   width="2986.6667"
   height="2986.6667"
   id="svg2"
   version="1.1"
   inkscape:version="0.92.1 unknown"
   sodipodi:docname="layang2.svg">
  <defs
     id="defs4" />
  <sodipodi:namedview
     id="base"
     pagecolor="#ffffff"
     bordercolor="#666666"
     borderopacity="1.0"
     inkscape:pageopacity="0.0"
     inkscape:pageshadow="2"
     inkscape:zoom="0.1113647"
     inkscape:cx="544.84157"
     inkscape:cy="959.78493"
     inkscape:document-units="px"
     inkscape:current-layer="layer1"
     showgrid="false"
     inkscape:window-width="1327"
     inkscape:window-height="747"
     inkscape:window-x="39"
     inkscape:window-y="21"
     inkscape:window-maximized="1" />
  <metadata
     id="metadata7">
    <rdf:RDF>
      <cc:Work
         rdf:about="">
        <dc:format>image/svg+xml</dc:format>
        <dc:type
           rdf:resource="http://purl.org/dc/dcmitype/StillImage" />
        <dc:title />
      </cc:Work>
    </rdf:RDF>
  </metadata>
  <g
     inkscape:label="Layer 1"
     inkscape:groupmode="layer"
     id="layer1"
     transform="translate(0,1864.147)">
    <rect
       style="fill:#b6f5f5;fill-opacity:1;stroke:none;stroke-width:1.06666672"
       id="rect2985"
       width="2985.6001"
       height="2985.6001"
       x="0.53333336"
       y="-1863.6136" />
    <g
       id="g3964"
       transform="translate(-438.70937,-18.496605)">
      <path
         inkscape:connector-curvature="0"
         id="path3912"
         d="m 1185.4843,382.85856 -130.9968,92.63861 12.3035,16.64598 144.7479,-91.91488 z"
         style="fill:#a05a2c;stroke:none;stroke-width:1.06666672" />
      <ellipse
         id="path3882"
         style="fill:#79eded;fill-opacity:1;stroke:none;stroke-width:1.12597048"
         cx="1496.3881"
         cy="899.39215"
         rx="558.84259"
         ry="88.022827" />
      <path
         inkscape:connector-curvature="0"
         style="fill:#999999;stroke:none;stroke-width:1.06666672"
         d="m 1918.051,576.99391 c 3.2702,-0.62347 7.1777,-2.55219 11.4945,-6.98902 12.9127,-13.27211 -51.9525,-125.43077 -151.2532,-169.68295 -1.5675,3.55682 -2.8074,6.73797 -3.8316,9.6008 63.729,14.21777 172.2678,152.43528 143.5903,167.07117 z"
         id="path3076" />
      <path
         inkscape:connector-curvature="0"
         id="path3054"
         d="m 1069.3519,872.26478 c -1.5356,3.26374 -2.3327,7.91752 -1.1916,14.52684 3.4137,19.77077 143.0406,34.31775 245.0611,-24.56079 -2.1201,-3.63889 -4.1194,-6.7513 -5.977,-9.47197 -53.0413,46.81691 -243.3209,53.96569 -237.8925,19.50592 z"
         style="fill:#999999;stroke:none;stroke-width:1.06666672" />
      <path
         id="path3052"
         d="m 1288.8333,802.4864 c -62.617,33.10848 -107.6787,18.98421 -126.5666,9.63328 -18.5115,5.54208 -78.2024,25.57909 -92.1001,57.33333 -16.4968,37.69312 183.1705,31.33718 237.3001,-16.90005 z"
         style="fill:#cccccc;stroke:none;stroke-width:1.06666672"
         inkscape:connector-curvature="0" />
      <path
         id="path3078"
         d="m 1774.2,409.85301 -20.8334,31.4 c 23.219,20.73174 43.4356,46.14699 60,92.16672 l 5.1001,3.46667 c 0,0 59.938,49.15723 97.0332,41.03328 37.0955,-8.12405 -75.9201,-153.80651 -141.2999,-168.06667 z"
         style="fill:#cccccc;stroke:none;stroke-width:1.06666672"
         inkscape:connector-curvature="0" />
      <path
         inkscape:connector-curvature="0"
         id="path3064"
         d="m 1153.464,814.91148 c -4.6427,1.54583 -10.0571,3.46266 -15.9958,5.79725 17.0725,11.37673 41.1874,34.05538 41.2786,71.34201 6.6303,-0.59534 13.3248,-1.35023 20.0023,-2.24648 -6.733,-22.79328 -20.2708,-55.90225 -45.2851,-74.89278 z m -35.5451,14.35566 c -4.6037,2.24855 -9.2072,4.69555 -13.6638,7.32469 14.7269,10.66012 32.7842,29.1116 36.8362,57.21684 5.7436,-0.004 11.6574,-0.15502 17.7083,-0.42682 -7.3383,-21.29951 -20.0333,-47.61686 -40.8807,-64.11471 z"
         style="fill:#ff0000;stroke:none;stroke-width:1.06666672" />
      <path
         inkscape:connector-curvature="0"
         style="fill:#ff0000;stroke:none;stroke-width:1.06666672"
         d="m 1829.6021,545.28799 c 3.6724,2.62852 8.0405,5.63226 13.0047,8.80087 -0.7637,-18.91952 3.093,-49.22778 30.888,-69.51871 -4.0405,-4.62841 -8.2352,-9.2182 -12.5261,-13.71867 -13.3696,17.39021 -30.752,45.45684 -31.3666,74.43651 z m 29.9986,18.75786 c 4.176,2.21842 8.5002,4.32902 12.8807,6.23109 -0.027,-16.77918 3.9588,-40.27116 22.7491,-58.54035 -3.118,-4.28699 -6.4382,-8.62126 -9.923,-12.99245 -11.9258,17.03203 -24.6935,40.78581 -25.7068,65.30171 z"
         id="path3080" />
      <path
         sodipodi:nodetypes="csscssccsccccscsccccc"
         inkscape:connector-curvature="0"
         id="path3045"
         d="m 1377.576,15.156507 c 0,0 -131.655,-4.348377 -235.2041,55.804976 -72.6973,42.231087 -174.43724,131.300667 -138.0494,253.804347 17.7915,59.89696 77.5957,97.72914 77.5957,97.72914 0,0 -10.6797,30.68806 0.1091,52.36181 10.7485,21.59282 43.052,34.38962 68.5908,15.41885 20.0848,-14.91944 30.7965,-59.44601 1.7111,-69.89277 31.2918,-5.73102 7.1029,-46.52217 -36.0787,-22.14457 -42.9143,-56.26887 -53.2649,-129.73048 4.883,-177.18522 73.9716,-60.36856 127.143,-40.96111 127.143,-40.96111 0,0 -15.1031,183.80087 1.9149,226.0345 135.7251,39.56447 368.7548,49.58701 442.6694,-52.2476 -37.1475,-213.26754 -51.2945,-256.73872 -51.2945,-256.73872 0,0 146.574,-1.361142 243.3089,-101.6667619 96.7347,-100.3055181 61.797,-263.1065381 61.797,-263.1065381 43.1697,8.30189 55.7451,-159.90399 -54.5631,-120.22702 -32.6518,11.74464 -58.0801,30.11214 -28.2665,74.35439 -45.0411,7.79462 0.8249,60.13546 27.482,52.08819 0,0 40.3889,229.55865 -277.1084,253.5724224 -115.9627,7.60536427 -108.3924,7.27390933 -108.3924,7.27390933 C 1502.9876,-27.16185 1376.1905,-36.847714 1377.576,15.156507 Z"
         style="fill:#ffccaa;stroke:none;stroke-width:1.06666672" />
      <path
         id="path3047"
         d="m 1684.0667,364.65301 c -79.3119,87.18347 -288.1262,80.20491 -420.1,45.30006 -23.5534,28.72 -110.2077,142.38666 -123.1667,275.6 -7.3654,75.71392 11.6,120.73322 11.6,120.73322 0,0 56.7339,43.992 146.7667,-9.6 14.4936,-84.84416 17.1486,-136.18709 50.9666,-176.86656 47.0501,-56.59637 81.7599,-66.1696 130.0667,-64.23338 64.2721,2.576 111.943,79.66218 220.6,93.06666 36.7987,4.53963 94.9394,-73.66602 114.9333,-108.43328 -17.7008,-52.46336 -39.7626,-79.44256 -65.4,-101.66677 -25.4853,34.47797 -47.9275,46.7648 -66.2666,-73.89995 z"
         style="fill:#37abc8;stroke:none;stroke-width:1.06666672"
         inkscape:connector-curvature="0" />
      <path
         id="path3886"
         d="m 1766.2667,-44.046933 c -2.6635,1.259306 -5.3918,2.488426 -8.1666,3.699946 l 51.0999,92.4 c 2.6256,-1.4016 5.2468,-2.8768 7.8667,-4.366613 -16.5081,-34.28448 -35.7328,-71.269867 -50.8,-91.733333 z m -324,21.83328 c -4.454,0.0448 -8.9253,0.295253 -13.3001,0.733333 -6.3161,1.125653 -12.6421,2.272533 -18.9666,3.433387 -18.8993,5.245333 -32.8989,15.734293 -32.4333,33.2 0,0 -4.5488,-0.13824 -12.5333,0 31.8332,10.78912 78.9502,21.54368 138.4665,20.23328 12.5673,-13.65664 21.8103,-26.3337603 28.6002,-37.7667203 -19.2602,1.3079466 -26.2667,1.80010663 -26.2667,1.80010663 C 1504.4468,-13.57824 1473.4445,-22.530453 1442.2667,-22.213653 Z m 217.0999,9.233386 c -1.5768,0.24288 -3.1352,0.501867 -4.7332,0.733227 1.5909,-0.2304 3.1632,-0.491413 4.7332,-0.733227 z m -418.3666,44.8 c -1.8285,0.467627 -3.6597,0.939307 -5.5001,1.43328 1.8411,-0.494293 3.6709,-0.96544 5.5001,-1.43328 z M 1172.1001,55.6864 c -2.4299,1.100587 -4.8523,2.23904 -7.2668,3.399893 2.412,-1.159786 4.8397,-2.30016 7.2668,-3.399893 z m -37.9335,20.166613 c -1.9504,1.194667 -3.9213,2.408747 -5.8999,3.666667 1.9713,-1.253013 3.9566,-2.476373 5.8999,-3.666667 z m 507.4001,21.266667 c 0,0 -2e-4,0.03307 0,0.03307 h 0.1003 z m -561.6334,18.49995 c -1.8426,1.616 -3.6787,3.23402 -5.5,4.90005 6.4746,26.00299 18.9974,66.63925 40.9,105.56672 1.8512,-1.70453 3.786,-3.38965 5.8,-5.03339 2.357,-1.92362 4.6863,-3.76853 7,-5.53333 -19.5344,-34.408 -40.9196,-80.75221 -48.2,-99.90005 z m 167.7334,72.43338 c -0.1946,2.61195 -0.4037,5.48608 -0.6667,9.26667 0.2498,-3.59285 0.477,-6.71253 0.6667,-9.26667 z m -2.3666,35.96662 c -0.225,3.8736 -0.4452,7.968 -0.6667,12.16672 0.2196,-4.1648 0.4435,-8.32128 0.6667,-12.16672 z"
         style="fill:#ffa569;fill-opacity:1;stroke:none;stroke-width:1.06666672"
         inkscape:connector-curvature="0" />
      <path
         id="path3059"
         d="m 1758.1001,-40.346987 c -37.0588,16.184 -84.1365,27.979734 -143.9001,32.499947 -43.8053,2.8730667 -66.4841,4.41216 -82.0999,5.4666667 -15.2855,25.7381333 -43.0431,57.7230933 -93.0334,93.2000003 -30.2764,-12.33472 -61.1199,-46.8 -82.8667,-75.43328 -41.4174,1.49856 -135.5955,10.117013 -213.8333,55.566613 -19.789,11.49568 -41.7124,26.466773 -62.4334,44.63339 9.1256,24.01216 40.4898,91.0273 62.5334,123.33333 69.8579,-52.84096 105.8,-58.83328 105.8,-58.83328 0,0 -15.0846,183.79968 1.9333,226.03328 135.725,39.56448 368.7522,49.60128 442.6667,-52.23339 -37.1474,-213.26741 -51.3,-256.76661 -51.3,-256.76661 0,0 100.3977,32.37632 184.7332,-14.133333 z"
         style="fill:#ff6600;stroke:none;stroke-width:1.06666672"
         inkscape:connector-curvature="0" />
      <path
         inkscape:connector-curvature="0"
         id="path2987"
         d="m 1422.5477,-688.75139 c -206.4944,-34.49791 -398.8331,64.79664 -456.40261,226.56874 -3.10688,-1.10248 -6.3372,-1.94513 -9.67999,-2.50359 -0.54288,-0.0907 -1.08496,-0.19715 -1.62727,-0.27186 -34.16284,-4.70604 -66.71704,22.21533 -73.18028,60.90243 -6.56584,39.30117 16.28156,75.87609 51.0322,81.68169 6.33997,1.05919 12.63,1.00805 18.73054,-9.4e-4 20.76562,157.02048 163.53511,294.322158 355.39311,326.3748547 191.858,32.0526963 371.5052,-51.3845487 442.1837,-193.1279447 5.4412,2.93722 11.373,5.0302 17.713,6.08936 34.7506,5.80562 68.2462,-21.35637 74.812,-60.65754 6.5659,-39.30118 -16.286,-75.8491 -51.0367,-81.65471 -0.543,-0.0907 -1.085,-0.19715 -1.6273,-0.27186 -2.7951,-0.3851 -5.5762,-0.56152 -8.3362,-0.53403 -1.873,-171.68997 -151.4904,-328.09845 -357.9742,-362.5946 z"
         style="fill:#ffccaa;fill-opacity:1;stroke:none;stroke-width:1.06666672" />
      <ellipse
         transform="rotate(19.687809)"
         id="path2995"
         style="fill:#ffffff;fill-opacity:1;stroke:none;stroke-width:0.43822724"
         cx="984.60327"
         cy="-725.92371"
         rx="51.361675"
         ry="69.542007" />
      <g
         transform="matrix(0.77172886,0.27613368,-0.27613368,0.77172886,47.978925,-264.86202)"
         id="g3005">
        <ellipse
           id="path2997"
           style="fill:#000000;fill-opacity:1;stroke:none;stroke-width:0.21861379"
           cx="1278.0382"
           cy="-587.27258"
           rx="25.622255"
           ry="34.691685" />
        <ellipse
           style="fill:#0000ff;fill-opacity:1;stroke:none;stroke-width:0.13476585"
           id="path2999"
           cx="1278.0382"
           cy="-587.27252"
           rx="15.795002"
           ry="21.38591" />
        <ellipse
           id="path3001"
           style="fill:#ffffff;fill-opacity:1;stroke:none;stroke-width:0.07026744"
           cx="1268.3148"
           cy="-598.53131"
           rx="8.2355757"
           ry="11.150697" />
        <ellipse
           style="fill:#ffffff;fill-opacity:1;stroke:none;stroke-width:0.047693"
           id="path3003"
           cx="1281.6206"
           cy="-582.41083"
           rx="5.5897765"
           ry="7.5683718" />
      </g>
      <ellipse
         style="fill:#ffffff;fill-opacity:1;stroke:none;stroke-width:0.43822724"
         id="path3011"
         transform="rotate(23.136956)"
         cx="1277.8812"
         cy="-867.84863"
         rx="51.361675"
         ry="69.542007" />
      <g
         transform="matrix(0.75371801,0.32206275,-0.32206275,0.75371801,383.10417,-285.7937)"
         id="g3013">
        <ellipse
           style="fill:#000000;fill-opacity:1;stroke:none;stroke-width:0.21861379"
           id="path3015"
           cx="1278.0382"
           cy="-587.27258"
           rx="25.622255"
           ry="34.691685" />
        <ellipse
           id="path3017"
           style="fill:#0000ff;fill-opacity:1;stroke:none;stroke-width:0.13476585"
           cx="1278.0382"
           cy="-587.27252"
           rx="15.795002"
           ry="21.38591" />
        <ellipse
           style="fill:#ffffff;fill-opacity:1;stroke:none;stroke-width:0.07026744"
           id="path3019"
           cx="1268.3148"
           cy="-598.53131"
           rx="8.2355757"
           ry="11.150697" />
        <ellipse
           id="path3021"
           style="fill:#ffffff;fill-opacity:1;stroke:none;stroke-width:0.047693"
           cx="1281.6206"
           cy="-582.41083"
           rx="5.5897765"
           ry="7.5683718" />
      </g>
      <path
         sodipodi:nodetypes="ccc"
         inkscape:connector-curvature="0"
         id="path3023"
         d="m 1123.8359,-475.23499 c 0,0 21.0804,-39.78113 62.4199,-13.62899 -3.4882,-58.31995 -79.1741,-37.28435 -62.4199,13.62899 z"
         style="fill:#000000;stroke:none;stroke-width:1.06666672" />
      <path
         style="fill:#000000;stroke:none;stroke-width:1.06666672"
         d="m 1594.9306,-396.5317 c 0,0 -7.0045,-44.47312 -54.5999,-33.17887 22.2561,-54.01899 86.9939,-9.52355 54.5999,33.17887 z"
         id="path3025"
         inkscape:connector-curvature="0"
         sodipodi:nodetypes="ccc" />
      <path
         sodipodi:nodetypes="ccc"
         inkscape:connector-curvature="0"
         id="path3027"
         d="m 1226.7015,-169.36375 c 0,0 69.4132,59.7108 202.6537,-3.43231 -14.0955,134.770998 -127.4454,208.454232 -202.6537,3.43231 z"
         style="fill:#ff5555;stroke:none;stroke-width:1.06666672" />
      <path
         inkscape:connector-curvature="0"
         id="path3029"
         d="m 1429.3682,-172.8055 c -96.1689,45.57475 -159.0965,27.16603 -186.6632,13.38456 l 18.3132,43.9172 c 0,0 71.0384,35.127855 157.6315,-6.90545 5.1295,-15.35227 8.8282,-32.32174 10.7185,-50.39631 z"
         style="fill:#ffffff;stroke:none;stroke-width:1.06666672" />
      <path
         inkscape:connector-curvature="0"
         id="path3034"
         d="m 1397.3286,-89.130154 c -41.5792,-6.946409 -81.3937,2.862851 -110.0539,23.884307 43.5665,41.060413 88.2224,23.913395 115.9106,-22.795077 -1.9344,-0.396061 -3.8896,-0.760599 -5.8567,-1.08923 z"
         style="fill:#ff8080;fill-opacity:1;stroke:none;stroke-width:1.06666672" />
      <path
         inkscape:connector-curvature="0"
         id="path3041"
         d="m 1319.6205,-250.92777 c 0,0 -18.7689,30.88634 -39.5874,12.94891 -20.8188,-17.93735 -35.0336,6.0549 -19.0454,32.54132 1.801,-20.96288 3.3216,-30.06482 18.4904,-24.12845 15.1686,5.93634 30.1991,12.70009 40.1424,-21.36178 z"
         style="fill:#ff7f2a;stroke:none;stroke-width:1.06666672" />
      <path
         inkscape:connector-curvature="0"
         id="path3901"
         d="m 1666.2927,-449.60907 c 0,0 65.5053,397.126297 -266.1155,442.1612833 122.8225,-8.1881603 356.1854,-65.5053863 368.4676,-343.9031433 -36.8468,-188.328 -102.3521,-98.25814 -102.3521,-98.25814 z"
         style="fill:#ffbd91;fill-opacity:1;stroke:none;stroke-width:1.06666672" />
      <path
         sodipodi:nodetypes="zccccscccccsscz"
         inkscape:connector-curvature="0"
         id="path3043"
         d="m 924.62224,-575.0865 c -7.92317,21.68709 -6.1797,126.88337 56.59763,197.51416 -3.47148,-101.62 49.59513,-138.46316 49.59513,-138.46316 0,0 -17.1871,59.67724 6.2056,92.454 19.5388,-88.15303 83.1484,-152.10333 83.1484,-152.10333 0,0 51.8517,78.42841 191.8844,104.22864 140.0327,25.80021 211.032,18.41593 211.032,18.41593 0,0 -62.0064,-46.4448 -74.8701,-70.24534 89.3203,26.95087 216.8746,41.04354 256.991,204.11713 32.3856,-21.05236 31.2462,-100.63139 31.2462,-100.63139 0,0 33.5084,101.82671 12.4168,170.47463 74.1498,-83.84092 84.6152,-143.40176 92.5339,-230.09495 11.4017,-124.82272 -126.595,-403.60257 -518.5591,-410.87105 -88.9662,-1.64974 -228.0328,26.56236 -256.8864,138.62431 -115.10654,45.7731 -133.41229,154.89335 -141.33546,176.58042 z"
         style="fill:#4d4d4d;stroke:none;stroke-width:1.06666672" />
      <path
         id="path3085"
         d="m 1133.2333,76.419627 c -9.3843,5.781013 -19.1167,12.287573 -28.8666,19.500053 12.953,33.49301 34.8316,89.03136 58.1999,128.4 11.7246,-8.15264 22.2527,-14.81099 31.6,-20.26667 -17.0045,-27.48362 -48.1267,-81.46122 -60.9333,-127.633383 z"
         style="fill:#aa4400;stroke:none;stroke-width:1.06666672"
         inkscape:connector-curvature="0" />
      <path
         id="path3090"
         d="m 1728.0667,-28.980267 c -9.8059,3.19584 -20.2112,6.123627 -31.2,8.733227 l 52.4999,126.76672 c 13.5303,-1.49781 27.5444,-4.16992 41.5667,-8.533333 z"
         style="fill:#aa4400;fill-opacity:1;stroke:none;stroke-width:1.06666672"
         inkscape:connector-curvature="0" />
      <path
         id="path3095"
         d="m 1582.7667,-5.7802667 c -22.4314,1.48832 -39.8041,2.6664534 -50.6666,3.3998934 -15.2856,25.7382403 -43.0431,57.7232003 -93.0334,93.2000003 -30.2764,-12.334614 -61.1199,-46.8 -82.8667,-75.43328 -14.6293,0.52928 -35.8663,1.951466 -60.6333,5.566613 31.8279,37.08352 90.0871,95.66507 145.5666,102.60011 65.1849,-36.213763 116.8813,-96.86827 141.6334,-129.3333367 z"
         style="fill:#aa4400;fill-opacity:1;stroke:none;stroke-width:1.06666672"
         inkscape:connector-curvature="0" />
      <path
         id="path3100"
         d="m 1684.0667,364.65301 c -71.0422,78.09291 -245.9765,80.63712 -376.5334,55.23328 59.1175,30.79296 196.2342,77.0527 383.4,-16.89994 -2.3526,-10.94976 -4.6337,-23.6415 -6.8666,-38.33334 z"
         style="fill:#2b869d;fill-opacity:1;stroke:none;stroke-width:1.06666672"
         inkscape:connector-curvature="0" />
      <path
         inkscape:connector-curvature="0"
         id="path3884"
         d="m 1330.232,275.74528 c 0,0 270.6783,-36.18699 293.838,31.84448 23.1597,68.03147 -81.0588,-46.31936 -293.838,-31.84448 z"
         style="fill:#dc5800;fill-opacity:1;stroke:none;stroke-width:1.06666672" />
      <path
         inkscape:connector-curvature="0"
         id="path3903"
         d="m 1136.1086,-639.984 c 0,0 53.2231,126.91669 243.5981,124.86965 -108.4933,-59.36426 -106.4462,-92.1169 -106.4462,-92.1169 0,0 102.3521,36.84672 173.9986,51.176 71.6465,14.32928 153.5282,28.65856 180.1397,65.50538 -18.4233,-75.74058 -147.387,-126.91669 -194.469,-141.24597 133.0578,28.65867 227.2218,28.65867 276.3507,102.35211 -79.8346,-139.19883 -221.0805,-186.28086 -323.4327,-200.61014 118.7285,14.32928 198.5632,30.7056 221.0806,53.22315 -47.082,-77.78763 -247.6921,-208.79838 -413.5026,-151.48118 106.4462,12.28226 139.1989,20.47043 139.1989,20.47043 l -118.7285,10.23521 161.7164,28.65863 -120.7755,20.4704 163.7634,57.31723 -114.6344,-4.09419 120.7756,40.94091 -61.4114,-8.18816 c 0,0 85.9758,47.08192 71.6466,47.08192 -14.3293,0 -120.7755,-38.89376 -120.7755,-38.89376 0,0 63.4582,55.27019 42.9878,45.03499 -20.4704,-10.23531 -141.2459,-63.45835 -141.2459,-63.45835 0,0 0,47.08192 34.7997,81.88171 -57.3172,-38.89387 -67.5524,-67.55243 -67.5524,-67.55243 0,0 2.0471,38.89376 26.6115,63.45835 -40.9408,-22.51755 -73.6935,-45.03499 -73.6935,-45.03499 z"
         style="fill:#666666;stroke:none;stroke-width:1.06666672" />
      <path
         id="path3905"
         d="m 1750.3333,438.55296 c -3.3638,4.55083 -6.6779,8.67723 -9.9333,12.20011 21.9731,30.02858 45.4214,73.99946 62.8667,109.23328 4.9826,-7.36822 9.2305,-14.13931 12.4666,-19.76662 -17.7008,-52.46346 -39.7626,-79.44256 -65.4,-101.66677 z m -447.8,337.76672 c -63.3126,32.6128 -124.6735,18.24555 -157.0666,5.96661 3.4195,15.57878 6.9333,24 6.9333,24 0,0 56.7339,43.99211 146.7667,-9.6 1.2023,-7.03797 2.3027,-13.77664 3.3666,-20.36661 z"
         style="fill:#8acede;fill-opacity:1;stroke:none;stroke-width:1.06666672"
         inkscape:connector-curvature="0" />
      <path
         sodipodi:nodetypes="ccccc"
         inkscape:connector-curvature="0"
         id="path3910"
         d="m 1158.7059,351.01408 c 0,0 16.646,52.83296 62.9654,80.33504 63.6889,-31.12085 125.2067,-81.78251 125.2067,-81.78251 0,0 -34.7394,-79.6113 -78.1638,-85.40128 -44.8719,27.50208 -110.0083,86.84875 -110.0083,86.84875 z"
         style="fill:#c87137;stroke:none;stroke-width:1.06666672" />
      <path
         id="path3914"
         d="m 1232.6999,289.2864 c -7.8761,5.98037 -15.6827,12.15851 -23.1666,18.23328 12.9345,23.46859 42.1292,68.59381 82.5334,82.36661 6.4454,-4.34869 12.5215,-8.55157 18.0999,-12.53333 -23.4916,-15.09824 -62.9361,-45.49099 -77.4667,-88.06656 z m -36.1998,28.89995 c -6.0002,5.01226 -11.3785,9.65386 -16.3001,13.90005 8.837,25.00992 27.3635,60.21664 65.6,86.53333 14.2448,-8.01098 27.925,-16.5552 40.4334,-24.83338 -17.1788,-6.75499 -69.9756,-30.61814 -89.7333,-75.6 z"
         style="fill:#ff0000;stroke:none;stroke-width:1.06666672"
         inkscape:connector-curvature="0" />
      <path
         id="path3937"
         d="m 2021.5667,-1617.847 c -9.3216,5.6463 -18.5797,11.5165 -27.7333,17.8 0,0 -302.9868,196.5318 -86,495.4 46.67,-44.7254 92.3761,-76.2923 134.9666,-98.4333 -117.4347,-205.7893 -35.0545,-384.9936 -20.4667,-413.8334 -0.248,-0.2994 -0.495,-0.5999 -0.7666,-0.9333 z m 266.5999,337.4333 c -1.7984,9.8317 -2.7084,17.6509 -3.1666,23.1667 -0.055,0.6427 -0.06,1.0572 -0.1003,1.6333 0.453,-5.613 1.4077,-14.0875 3.3334,-24.7 -0.023,-0.03 -0.043,-0.07 -0.067,-0.1 z m -3.2665,24.8 c -0.017,0.2327 -0.051,0.411 -0.067,0.6334 -0.1164,1.6623 -0.189,3.0984 -0.2333,4.1666 0.062,-1.224 0.1423,-2.8464 0.3,-4.8 z"
         style="fill:#ff0000;stroke:none;stroke-width:1.06666672"
         inkscape:connector-curvature="0" />
      <path
         id="path3919"
         d="m 2273.4999,-1692.047 c -82.0225,-0.2628 -168.7965,24.3362 -249.9332,73.0333 184.8446,5.0643 307.6778,84.9164 377.9666,150.6334 38.4132,-31.214 89.4251,-59.1947 157.2667,-78.4334 -67.7462,-97.1029 -171.9804,-144.8702 -285.3001,-145.2333 z m -249.9332,73.0333 c -0.6629,0.3979 -1.3379,0.7656 -2,1.1667 0.4953,0.6079 0.9021,1.0885 1.3999,1.7 6.157,7.5605 12.5445,15.4581 19.0667,23.5333 z m 294.7,251.7667 c -0.7096,1.3568 -1.3866,2.719 -2.0667,4.0667 0.6788,-1.3476 1.3583,-2.71 2.0667,-4.0667 z m -2.0667,4.0667 c -0.7743,1.5344 -1.5297,3.0786 -2.2667,4.6 0.7367,-1.5239 1.4924,-3.0631 2.2667,-4.6 z m -12,26.8666 c -0.5607,1.4306 -1.1041,2.8563 -1.6334,4.2667 0.531,-1.4195 1.0705,-2.8267 1.6334,-4.2667 z m -3.2,8.5 c -1.5067,4.1991 -2.8561,8.2852 -4.0999,12.2667 1.2374,-3.9755 2.6002,-8.0733 4.0999,-12.2667 z m -4.0999,12.2667 c -4.1252,13.2033 -6.9011,25.1162 -8.7335,35.1333 0.023,0.03 0.043,0.07 0.067,0.1 1.8195,-10.028 4.5418,-21.9816 8.6667,-35.2333 z"
         style="fill:#0000ff;stroke:none;stroke-width:1.06666672"
         inkscape:connector-curvature="0" />
      <path
         id="path3921"
         d="m 2023.5667,-1619.0137 259.5,370.7334 c 0.6655,0.1469 1.4334,0.3333 1.4334,0.3333 0,0 0.011,-125.3053 117.0332,-220.4333 -70.2888,-65.717 -193.1219,-145.5691 -377.9666,-150.6334 z"
         style="fill:#007f00;stroke:none;stroke-width:1.06666672"
         inkscape:connector-curvature="0" />
      <path
         sodipodi:nodetypes="cccccccccccccccccccc"
         inkscape:connector-curvature="0"
         id="path3926"
         d="m 2023.4266,-1618.9927 c -10.9625,21.0672 -101.2795,204.501 19.4067,415.9457 127.768,-66.3457 227.4984,-47.9792 240.2334,-45.2333 l -259.5,-370.7334 c 0,0 -0.1066,-0.065 -0.1401,0.021 z m 270.7067,312.8124 c -1.6979,6.1105 -3.0825,11.8415 -4.2334,17.2 1.1518,-5.3556 2.5365,-11.0936 4.2334,-17.2 z m -5.6666,24.2333 c -0.2982,1.5809 -0.5786,3.1111 -0.8334,4.6 0.2533,-1.4751 0.5376,-3.0348 0.8334,-4.6 z m -0.8334,4.6 c -0.2834,1.6568 -0.5325,3.263 -0.7666,4.8 0.2353,-1.5372 0.4821,-3.1433 0.7666,-4.8 z m -0.7666,4.8 c -0.2326,1.5264 -0.4448,2.9978 -0.6333,4.4 0.1907,-1.4115 0.398,-2.8627 0.6333,-4.4 z m -1.8667,15.3 c -0.1712,2.0297 -0.2591,3.5462 -0.3333,4.9333 0.077,-1.3594 0.1673,-2.9913 0.3333,-4.9333 z"
         style="fill:#ffff00;stroke:none;stroke-width:1.06666672" />
      <path
         inkscape:connector-curvature="0"
         id="path3948"
         d="m 2279.5667,-1600.447 -339.8001,217 5.7333,8.9667 339.8334,-216.9667 z"
         style="color:#000000;font-style:normal;font-variant:normal;font-weight:normal;font-stretch:normal;font-size:medium;line-height:normal;font-family:Sans;-inkscape-font-specification:Sans;text-indent:0;text-align:start;text-decoration:none;text-decoration-line:none;letter-spacing:normal;word-spacing:normal;text-transform:none;writing-mode:lr-tb;direction:ltr;baseline-shift:baseline;text-anchor:start;display:inline;overflow:visible;visibility:visible;fill:#000000;fill-opacity:1;stroke:none;stroke-width:10.66666698;marker:none;enable-background:accumulate" />
      <path
         inkscape:connector-curvature="0"
         id="path3954"
         d="m 2283.4642,-1248.6973 c 0,0 61.4112,247.6921 206.7513,249.73916 145.34,2.04704 169.9045,65.50531 200.6101,176.04568 30.7057,110.54027 219.0336,71.64651 292.7271,139.19883 -55.2701,-92.11691 -223.1276,-38.89376 -266.1155,-131.01067 -42.9879,-92.11691 -18.4234,-157.62229 -155.5752,-188.3279 -137.1519,-30.7057 -180.1398,-20.4705 -278.3978,-245.6451 z"
         style="fill:#ff0000;stroke:none;stroke-width:1.06666672" />
      <path
         sodipodi:nodetypes="csscssc"
         style="fill:#000080;stroke:none;stroke-width:1.06666672"
         d="m 2834.2095,-679.19633 c 0,0 -149.2484,-62.40706 -283.4301,-118.29289 -134.1815,-55.88583 -59.724,-99.36383 -47.1736,-213.40108 12.5503,-114.0372 -176.7508,-147.8788 -220.0804,-237.9709 17.1,106.0562 192.7177,118.9899 198.414,220.484 5.6965,101.49394 -66.0064,161.37676 0.7986,208.07672 115.1922,80.52487 270.1887,98.19942 351.4715,141.10415 z"
         id="path3956"
         inkscape:connector-curvature="0" />
      <path
         inkscape:connector-curvature="0"
         id="path3958"
         d="m 2112.4333,-1489.3804 c 0,0 -6.218,261.3021 -40.3,539.56675 -17.0409,139.13231 -41.0473,282.49994 -74.6666,399.43328 -33.6193,116.93344 -77.1498,207.26421 -131.6,240.50005 l -2.0333,1.26667 0.9999,2.13333 c 16.8767,36.56619 16.5076,100.41173 -0.9,174.43339 -17.4075,74.021543 -51.663,158.281063 -101.6999,236.26666 -100.074,155.9711 -262.828,286.70571 -480.2001,262.23328 l -0.5999,5.29995 c 219.7661,24.74197 384.5364,-107.58741 485.2999,-264.63328 50.3818,-78.522987 84.842,-163.271787 102.4,-237.93333 17.2537,-73.36715 18.3167,-136.89302 1.4,-175.8 56.0537,-35.66272 98.6618,-126.22827 132.0333,-242.30006 33.7529,-117.39754 57.7727,-260.93999 74.8334,-400.23328 34.1214,-278.58651 40.3666,-540.10001 40.3666,-540.10001 z"
         style="color:#000000;font-style:normal;font-variant:normal;font-weight:normal;font-stretch:normal;font-size:medium;line-height:normal;font-family:Sans;-inkscape-font-specification:Sans;text-indent:0;text-align:start;text-decoration:none;text-decoration-line:none;letter-spacing:normal;word-spacing:normal;text-transform:none;writing-mode:lr-tb;direction:ltr;baseline-shift:baseline;text-anchor:start;display:inline;overflow:visible;visibility:visible;fill:#ff0000;fill-opacity:1;stroke:none;stroke-width:5.33333349;marker:none;enable-background:accumulate" />
    </g>
  </g>
</svg>
